<svg version="1.1" xmlns="http://www.w3.org/2000/svg" xmlns:xlink="http://www.w3.org/1999/xlink" width="355" height="211"><defs/><g><g transform="translate(-206,-72) scale(1,1)"><rect fill="#ffffff" stroke="none" x="312" y="82" width="95" height="60"/></g><g transform="translate(-206,-72) scale(1,1)"><path fill="none" stroke="#000000" d="M 312 82 L 407 82 L 407 142 L 312 142 L 312 82 Z Z" stroke-miterlimit="10"/></g><g transform="translate(-206,-72) scale(1,1)"><path fill="none" stroke="#000000" d="M 312 120 L 407 120" stroke-miterlimit="10"/></g><g transform="translate(-206,-72) scale(1,1)"><g><path fill="none" stroke="none"/><text fill="#000000" stroke="none" font-family="Arial" font-size="13px" font-style="normal" font-weight="normal" text-decoration="none" x="320.5" y="99.5">«abstraction»</text></g></g><g transform="translate(-206,-72) scale(1,1)"><g><path fill="none" stroke="none"/><text fill="#000000" stroke="none" font-family="Arial" font-size="13px" font-style="italic" font-weight="bold" text-decoration="none" x="316.5" y="114.5">EXPRESSION</text></g></g><g transform="translate(-206,-72) scale(1,1)"><g><path fill="none" stroke="none"/><text fill="#000000" stroke="none" font-family="Arial" font-size="13px" font-style="normal" font-weight="normal" text-decoration="none" x="317" y="137.5">kind: String</text></g></g><g transform="translate(-206,-72) scale(1,1)"><rect fill="#ffffff" stroke="none" x="464" y="94" width="87" height="37"/></g><g transform="translate(-206,-72) scale(1,1)"><path fill="none" stroke="#000000" d="M 464 94 L 551 94 L 551 131 L 464 131 L 464 94 Z Z" stroke-miterlimit="10"/></g><g transform="translate(-206,-72) scale(1,1)"><g><path fill="none" stroke="none"/><text fill="#000000" stroke="none" font-family="Arial" font-size="13px" font-style="normal" font-weight="normal" text-decoration="none" x="468.5" y="111.5">«abstraction»</text></g></g><g transform="translate(-206,-72) scale(1,1)"><g><path fill="none" stroke="none"/><text fill="#000000" stroke="none" font-family="Arial" font-size="13px" font-style="italic" font-weight="bold" text-decoration="none" x="490" y="126.5">TYPE</text></g></g><g transform="translate(-206,-72) scale(1,1)"><path fill="none" stroke="#000000" d="M 408 112 L 463 112" stroke-miterlimit="10"/></g><g transform="translate(-206,-72) scale(1,1)"><path fill="none" stroke="#000000" d="M 452.83732514237585 116.20951775601598 L 463 112 L 452.83732514237585 107.79048224398402" stroke-miterlimit="10"/></g><g transform="translate(-206,-72) scale(1,1)"><g><path fill="none" stroke="none"/><text fill="#000000" stroke="none" font-family="Arial" font-size="13px" font-style="normal" font-weight="normal" text-decoration="none" x="423.5" y="103.5">/ type</text></g></g><g transform="translate(-206,-72) scale(1,1)"><path fill="none" stroke="#000000" d="M 312 90 L 216 90 L 216 130 L 312 130" stroke-miterlimit="10"/></g><g transform="translate(-206,-72) scale(1,1)"><path fill="none" stroke="#000000" d="M 301.83732514237585 134.209517756016 L 312 130 L 301.83732514237585 125.79048224398402" stroke-miterlimit="10"/></g><g transform="translate(-206,-72) scale(1,1)"><g><path fill="none" stroke="none"/><text fill="#000000" stroke="none" font-family="Arial" font-size="13px" font-style="normal" font-weight="normal" text-decoration="none" x="243.5" y="123.5">/ operands</text></g></g><g transform="translate(-206,-72) scale(1,1)"><g><path fill="none" stroke="none"/><text fill="#000000" stroke="none" font-family="Arial" font-size="13px" font-style="normal" font-weight="normal" text-decoration="none" x="279.5" y="148.5">0..*</text></g></g><g transform="translate(-206,-72) scale(1,1)"><rect fill="#ffffff" stroke="none" x="310" y="198" width="96" height="75"/></g><g transform="translate(-206,-72) scale(1,1)"><path fill="none" stroke="#000000" d="M 310 198 L 406 198 L 406 273 L 310 273 L 310 198 Z Z" stroke-miterlimit="10"/></g><g transform="translate(-206,-72) scale(1,1)"><path fill="none" stroke="#000000" d="M 310 236 L 406 236" stroke-miterlimit="10"/></g><g transform="translate(-206,-72) scale(1,1)"><g><path fill="none" stroke="none"/><text fill="#000000" stroke="none" font-family="Arial" font-size="13px" font-style="normal" font-weight="normal" text-decoration="none" x="328" y="215.5">«concept»</text></g></g><g transform="translate(-206,-72) scale(1,1)"><g><path fill="none" stroke="none"/><text fill="#000000" stroke="none" font-family="Arial" font-size="13px" font-style="normal" font-weight="bold" text-decoration="none" x="331.5" y="230.5">LITERAL</text></g></g><g transform="translate(-206,-72) scale(1,1)"><g><path fill="none" stroke="none"/><text fill="#000000" stroke="none" font-family="Arial" font-size="13px" font-style="normal" font-weight="normal" text-decoration="none" x="315" y="253.5">text: String</text></g></g><g transform="translate(-206,-72) scale(1,1)"><g><path fill="none" stroke="none"/><text fill="#000000" stroke="none" font-family="Arial" font-size="13px" font-style="normal" font-weight="normal" text-decoration="none" x="315" y="268.5">/kind = literal</text></g></g><g transform="translate(-206,-72) scale(1,1)"><path fill="none" stroke="#000000" d="M 359 198 L 359 142" stroke-miterlimit="10"/></g><g transform="translate(-206,-72) scale(1,1)"><path fill="#FFFFFF" stroke="none" d="M 367.419035512032 162.3253497152483 L 359 142 L 350.580964487968 162.3253497152483"/></g><g transform="translate(-206,-72) scale(1,1)"><path fill="none" stroke="#000000" d="M 367.419035512032 162.3253497152483 L 359 142 L 350.580964487968 162.3253497152483 L 367.419035512032 162.3253497152483" stroke-miterlimit="10"/></g><g transform="translate(-206,-72) scale(1,1)"><path fill="none" stroke="#000000" d="M 406 228 L 502 228 L 502 131" stroke-miterlimit="10"/></g><g transform="translate(-206,-72) scale(1,1)"><path fill="none" stroke="#000000" d="M 506.209517756016 141.16267485762415 L 502 131 L 497.790482243984 141.16267485762415" stroke-miterlimit="10"/></g><g transform="translate(-206,-72) scale(1,1)"><g><path fill="none" stroke="none"/><text fill="#000000" stroke="none" font-family="Arial" font-size="13px" font-style="normal" font-weight="normal" text-decoration="none" x="511.5" y="152.5">type</text></g></g></g></svg>