<svg version="1.1" xmlns="http://www.w3.org/2000/svg" xmlns:xlink="http://www.w3.org/1999/xlink" width="712" height="418"><defs/><g><g transform="translate(-38,-12) scale(1,1)"><rect fill="#ffffff" stroke="none" x="204" y="82" width="187" height="92"/></g><g transform="translate(-38,-12) scale(1,1)"><path fill="none" stroke="#000000" d="M 204 82 L 391 82 L 391 174 L 204 174 L 204 82 Z Z" stroke-miterlimit="10"/></g><g transform="translate(-38,-12) scale(1,1)"><path fill="none" stroke="#000000" d="M 204 107 L 391 107" stroke-miterlimit="10"/></g><g transform="translate(-38,-12) scale(1,1)"><g><path fill="none" stroke="none"/><text fill="#000000" stroke="none" font-family="Arial" font-size="13px" font-style="normal" font-weight="bold" text-decoration="none" x="254.5" y="101.5">EXPRESSION</text></g></g><g transform="translate(-38,-12) scale(1,1)"><g><path fill="none" stroke="none"/><text fill="#000000" stroke="none" font-family="Arial" font-size="13px" font-style="normal" font-weight="normal" text-decoration="none" x="209" y="124.5">«abstract»kind: String</text></g></g><g transform="translate(-38,-12) scale(1,1)"><g><path fill="none" stroke="none"/><text fill="#000000" stroke="none" font-family="Arial" font-size="13px" font-style="normal" font-weight="normal" text-decoration="none" x="209" y="139.5">/numeric: Boolean</text></g></g><g transform="translate(-38,-12) scale(1,1)"><g><path fill="none" stroke="none"/><text fill="#000000" stroke="none" font-family="Arial" font-size="13px" font-style="normal" font-weight="normal" text-decoration="none" x="209" y="154.5">/float: Boolean</text></g></g><g transform="translate(-38,-12) scale(1,1)"><g><path fill="none" stroke="none"/><text fill="#000000" stroke="none" font-family="Arial" font-size="13px" font-style="normal" font-weight="normal" text-decoration="none" x="209" y="169.5">/arithmetic: Boolean</text></g></g><g transform="translate(-38,-12) scale(1,1)"><rect fill="#ffffff" stroke="none" x="464" y="112" width="206" height="24"/></g><g transform="translate(-38,-12) scale(1,1)"><path fill="none" stroke="#000000" d="M 464 112 L 670 112 L 670 136 L 464 136 L 464 112 Z Z" stroke-miterlimit="10"/></g><g transform="translate(-38,-12) scale(1,1)"><g><path fill="none" stroke="none"/><text fill="#000000" stroke="none" font-family="Arial" font-size="13px" font-style="normal" font-weight="bold" text-decoration="none" x="549.5" y="131.5">TYPE</text></g></g><g transform="translate(-38,-12) scale(1,1)"><path fill="none" stroke="#000000" d="M 392 127 L 463 126" stroke-miterlimit="10"/></g><g transform="translate(-38,-12) scale(1,1)"><path fill="none" stroke="#000000" d="M 452.89761609697774 130.35222236058274 L 463 126 L 452.77904989162334 121.9340217804229" stroke-miterlimit="10"/></g><g transform="translate(-38,-12) scale(1,1)"><g><path fill="none" stroke="none"/><text fill="#000000" stroke="none" font-family="Arial" font-size="13px" font-style="normal" font-weight="normal" text-decoration="none" x="396.5" y="144.5">«abstract»</text></g></g><g transform="translate(-38,-12) scale(1,1)"><g><path fill="none" stroke="none"/><text fill="#000000" stroke="none" font-family="Arial" font-size="13px" font-style="normal" font-weight="normal" text-decoration="none" x="422.970458984375" y="118.5">/ type</text></g></g><g transform="translate(-38,-12) scale(1,1)"><path fill="none" stroke="#000000" d="M 204 90 L 108 90 L 108 130 L 204 130" stroke-miterlimit="10"/></g><g transform="translate(-38,-12) scale(1,1)"><path fill="none" stroke="#000000" d="M 193.83732514237585 134.209517756016 L 204 130 L 193.83732514237585 125.79048224398402" stroke-miterlimit="10"/></g><g transform="translate(-38,-12) scale(1,1)"><g><path fill="none" stroke="none"/><text fill="#000000" stroke="none" font-family="Arial" font-size="13px" font-style="normal" font-weight="normal" text-decoration="none" x="135.5" y="123.5">/ operands</text></g></g><g transform="translate(-38,-12) scale(1,1)"><g><path fill="none" stroke="none"/><text fill="#000000" stroke="none" font-family="Arial" font-size="13px" font-style="normal" font-weight="normal" text-decoration="none" x="171.5" y="148.5">0..*</text></g></g><g transform="translate(-38,-12) scale(1,1)"><rect fill="#ffffff" stroke="none" x="188" y="214" width="202" height="94"/></g><g transform="translate(-38,-12) scale(1,1)"><path fill="none" stroke="#000000" d="M 188 214 L 390 214 L 390 308 L 188 308 L 188 214 Z Z" stroke-miterlimit="10"/></g><g transform="translate(-38,-12) scale(1,1)"><path fill="none" stroke="#000000" d="M 188 239 L 390 239" stroke-miterlimit="10"/></g><g transform="translate(-38,-12) scale(1,1)"><g><path fill="none" stroke="none"/><text fill="#000000" stroke="none" font-family="Arial" font-size="13px" font-style="normal" font-weight="bold" text-decoration="none" x="272" y="233.5">INFIX</text></g></g><g transform="translate(-38,-12) scale(1,1)"><g><path fill="none" stroke="none"/><text fill="#000000" stroke="none" font-family="Arial" font-size="13px" font-style="normal" font-weight="normal" text-decoration="none" x="193" y="256.5">operator: String</text></g></g><g transform="translate(-38,-12) scale(1,1)"><g><path fill="none" stroke="none"/><text fill="#000000" stroke="none" font-family="Arial" font-size="13px" font-style="normal" font-weight="normal" text-decoration="none" x="193" y="271.5">«abstract»/operation: String[0..1]</text></g></g><g transform="translate(-38,-12) scale(1,1)"><g><path fill="none" stroke="none"/><text fill="#000000" stroke="none" font-family="Arial" font-size="13px" font-style="normal" font-weight="normal" text-decoration="none" x="193" y="286.5">«redefined»/numeric: Boolean</text></g></g><g transform="translate(-38,-12) scale(1,1)"><g><path fill="none" stroke="none"/><text fill="#000000" stroke="none" font-family="Arial" font-size="13px" font-style="normal" font-weight="normal" text-decoration="none" x="193" y="301.5">«redefined»/float: Boolean</text></g></g><g transform="translate(-38,-12) scale(1,1)"><path fill="none" stroke="#000000" d="M 288 214 L 288 174" stroke-miterlimit="10"/></g><g transform="translate(-38,-12) scale(1,1)"><path fill="#FFFFFF" stroke="none" d="M 296.419035512032 194.3253497152483 L 288 174 L 279.580964487968 194.3253497152483"/></g><g transform="translate(-38,-12) scale(1,1)"><path fill="none" stroke="#000000" d="M 296.419035512032 194.3253497152483 L 288 174 L 279.580964487968 194.3253497152483 L 296.419035512032 194.3253497152483" stroke-miterlimit="10"/></g><g transform="translate(-38,-12) scale(1,1)"><path fill="none" stroke="#000000" d="M 383 390 L 652 390 L 652 136" stroke-miterlimit="10"/></g><g transform="translate(-38,-12) scale(1,1)"><path fill="none" stroke="#000000" d="M 656.209517756016 146.16267485762415 L 652 136 L 647.790482243984 146.16267485762415" stroke-miterlimit="10"/></g><g transform="translate(-38,-12) scale(1,1)"><g><path fill="none" stroke="none"/><text fill="#000000" stroke="none" font-family="Arial" font-size="13px" font-style="normal" font-weight="normal" text-decoration="none" x="577.5" y="381.5">«redefined»</text></g></g><g transform="translate(-38,-12) scale(1,1)"><g><path fill="none" stroke="none"/><text fill="#000000" stroke="none" font-family="Arial" font-size="13px" font-style="normal" font-weight="normal" text-decoration="none" x="657.5" y="163.5">/ inferred_type</text></g></g><g transform="translate(-38,-12) scale(1,1)"><path fill="none" stroke="#000000" d="M 188 234 L 82 234 L 82 48 L 216 48 L 216 82" stroke-miterlimit="10"/></g><g transform="translate(-38,-12) scale(1,1)"><path fill="none" stroke="#000000" d="M 211.790482243984 71.83732514237585 L 216 82 L 220.209517756016 71.83732514237585" stroke-miterlimit="10"/></g><g transform="translate(-38,-12) scale(1,1)"><g><path fill="none" stroke="none"/><text fill="#000000" stroke="none" font-family="Arial" font-size="13px" font-style="normal" font-weight="normal" text-decoration="none" x="220.5" y="68.5">/ left</text></g></g><g transform="translate(-38,-12) scale(1,1)"><path fill="none" stroke="#000000" d="M 188 286 L 48 286 L 48 22 L 280 22 L 280 82" stroke-miterlimit="10"/></g><g transform="translate(-38,-12) scale(1,1)"><path fill="none" stroke="#000000" d="M 275.790482243984 71.83732514237585 L 280 82 L 284.209517756016 71.83732514237585" stroke-miterlimit="10"/></g><g transform="translate(-38,-12) scale(1,1)"><g><path fill="none" stroke="none"/><text fill="#000000" stroke="none" font-family="Arial" font-size="13px" font-style="normal" font-weight="normal" text-decoration="none" x="285.5" y="64.5">/ right</text></g></g><g transform="translate(-38,-12) scale(1,1)"><rect fill="#ffffff" stroke="none" x="196" y="352" width="187" height="68"/></g><g transform="translate(-38,-12) scale(1,1)"><path fill="none" stroke="#000000" d="M 196 352 L 383 352 L 383 420 L 196 420 L 196 352 Z Z" stroke-miterlimit="10"/></g><g transform="translate(-38,-12) scale(1,1)"><path fill="none" stroke="#000000" d="M 196 377 L 383 377" stroke-miterlimit="10"/></g><g transform="translate(-38,-12) scale(1,1)"><g><path fill="none" stroke="none"/><text fill="#000000" stroke="none" font-family="Arial" font-size="13px" font-style="normal" font-weight="bold" text-decoration="none" x="249.5" y="371.5">ARITHMETIC</text></g></g><g transform="translate(-38,-12) scale(1,1)"><g><path fill="none" stroke="none"/><text fill="#000000" stroke="none" font-family="Arial" font-size="13px" font-style="normal" font-weight="normal" text-decoration="none" x="201" y="394.5">«redefined»/kind = arithmetic</text></g></g><g transform="translate(-38,-12) scale(1,1)"><g><path fill="none" stroke="none"/><text fill="#000000" stroke="none" font-family="Arial" font-size="13px" font-style="normal" font-weight="normal" text-decoration="none" x="201" y="409.5">«redefined»/operation: String</text></g></g><g transform="translate(-38,-12) scale(1,1)"><path fill="none" stroke="#000000" d="M 390 224 L 500 224 L 500 136" stroke-miterlimit="10"/></g><g transform="translate(-38,-12) scale(1,1)"><path fill="none" stroke="#000000" d="M 504.209517756016 146.16267485762415 L 500 136 L 495.790482243984 146.16267485762415" stroke-miterlimit="10"/></g><g transform="translate(-38,-12) scale(1,1)"><g><path fill="none" stroke="none"/><text fill="#000000" stroke="none" font-family="Arial" font-size="13px" font-style="normal" font-weight="normal" text-decoration="none" x="401.5" y="167.5">/ undefined_type</text></g></g><g transform="translate(-38,-12) scale(1,1)"><path fill="none" stroke="#000000" d="M 288 352 L 288 308" stroke-miterlimit="10"/></g><g transform="translate(-38,-12) scale(1,1)"><path fill="#FFFFFF" stroke="none" d="M 296.419035512032 328.3253497152483 L 288 308 L 279.580964487968 328.3253497152483"/></g><g transform="translate(-38,-12) scale(1,1)"><path fill="none" stroke="#000000" d="M 296.419035512032 328.3253497152483 L 288 308 L 279.580964487968 328.3253497152483 L 296.419035512032 328.3253497152483" stroke-miterlimit="10"/></g><g transform="translate(-38,-12) scale(1,1)"><path fill="none" stroke="#000000" d="M 390 260 L 526 260 L 526 136" stroke-miterlimit="10"/></g><g transform="translate(-38,-12) scale(1,1)"><path fill="none" stroke="#000000" d="M 530.209517756016 146.16267485762415 L 526 136 L 521.790482243984 146.16267485762415" stroke-miterlimit="10"/></g><g transform="translate(-38,-12) scale(1,1)"><g><path fill="none" stroke="none"/><text fill="#000000" stroke="none" font-family="Arial" font-size="13px" font-style="normal" font-weight="normal" text-decoration="none" x="451.5" y="253.5">«redefined»</text></g></g><g transform="translate(-38,-12) scale(1,1)"><g><path fill="none" stroke="none"/><text fill="#000000" stroke="none" font-family="Arial" font-size="13px" font-style="normal" font-weight="normal" text-decoration="none" x="529.5" y="178.5">/ type</text></g></g><g transform="translate(-38,-12) scale(1,1)"><path fill="none" stroke="#000000" d="M 390 292 L 634 292 L 634 136" stroke-miterlimit="10"/></g><g transform="translate(-38,-12) scale(1,1)"><path fill="none" stroke="#000000" d="M 638.209517756016 146.16267485762415 L 634 136 L 629.790482243984 146.16267485762415" stroke-miterlimit="10"/></g><g transform="translate(-38,-12) scale(1,1)"><g><path fill="none" stroke="none"/><text fill="#000000" stroke="none" font-family="Arial" font-size="13px" font-style="normal" font-weight="normal" text-decoration="none" x="565.5" y="285.5">«abstract»</text></g></g><g transform="translate(-38,-12) scale(1,1)"><g><path fill="none" stroke="none"/><text fill="#000000" stroke="none" font-family="Arial" font-size="13px" font-style="normal" font-weight="normal" text-decoration="none" x="547.5" y="160.5">/ inferred_type</text></g></g></g></svg>