<svg version="1.1" xmlns="http://www.w3.org/2000/svg" xmlns:xlink="http://www.w3.org/1999/xlink" width="604" height="418"><defs/><g><g transform="translate(-146,-12) scale(1,1)"><rect fill="#ffffff" stroke="none" x="312" y="82" width="187" height="92"/></g><g transform="translate(-146,-12) scale(1,1)"><path fill="none" stroke="#000000" d="M 312 82 L 499 82 L 499 174 L 312 174 L 312 82 Z Z" stroke-miterlimit="10"/></g><g transform="translate(-146,-12) scale(1,1)"><path fill="none" stroke="#000000" d="M 312 107 L 499 107" stroke-miterlimit="10"/></g><g transform="translate(-146,-12) scale(1,1)"><g><path fill="none" stroke="none"/><text fill="#000000" stroke="none" font-family="Arial" font-size="13px" font-style="normal" font-weight="bold" text-decoration="none" x="362.5" y="101.5">EXPRESSION</text></g></g><g transform="translate(-146,-12) scale(1,1)"><g><path fill="none" stroke="none"/><text fill="#000000" stroke="none" font-family="Arial" font-size="13px" font-style="normal" font-weight="normal" text-decoration="none" x="317" y="124.5">«abstract»kind: String</text></g></g><g transform="translate(-146,-12) scale(1,1)"><g><path fill="none" stroke="none"/><text fill="#000000" stroke="none" font-family="Arial" font-size="13px" font-style="normal" font-weight="normal" text-decoration="none" x="317" y="139.5">/numeric: Boolean</text></g></g><g transform="translate(-146,-12) scale(1,1)"><g><path fill="none" stroke="none"/><text fill="#000000" stroke="none" font-family="Arial" font-size="13px" font-style="normal" font-weight="normal" text-decoration="none" x="317" y="154.5">/binary_float: Boolean</text></g></g><g transform="translate(-146,-12) scale(1,1)"><g><path fill="none" stroke="none"/><text fill="#000000" stroke="none" font-family="Arial" font-size="13px" font-style="normal" font-weight="normal" text-decoration="none" x="317" y="169.5">/arithmetic: Boolean</text></g></g><g transform="translate(-146,-12) scale(1,1)"><rect fill="#ffffff" stroke="none" x="572" y="112" width="142" height="24"/></g><g transform="translate(-146,-12) scale(1,1)"><path fill="none" stroke="#000000" d="M 572 112 L 714 112 L 714 136 L 572 136 L 572 112 Z Z" stroke-miterlimit="10"/></g><g transform="translate(-146,-12) scale(1,1)"><g><path fill="none" stroke="none"/><text fill="#000000" stroke="none" font-family="Arial" font-size="13px" font-style="normal" font-weight="bold" text-decoration="none" x="625.5" y="131.5">TYPE</text></g></g><g transform="translate(-146,-12) scale(1,1)"><path fill="none" stroke="#000000" d="M 500 126 L 571 125" stroke-miterlimit="10"/></g><g transform="translate(-146,-12) scale(1,1)"><path fill="none" stroke="#000000" d="M 560.8976160969777 129.35222236058274 L 571 125 L 560.7790498916233 120.9340217804229" stroke-miterlimit="10"/></g><g transform="translate(-146,-12) scale(1,1)"><g><path fill="none" stroke="none"/><text fill="#000000" stroke="none" font-family="Arial" font-size="13px" font-style="normal" font-weight="normal" text-decoration="none" x="504.5" y="143.5">«abstract»</text></g></g><g transform="translate(-146,-12) scale(1,1)"><g><path fill="none" stroke="none"/><text fill="#000000" stroke="none" font-family="Arial" font-size="13px" font-style="normal" font-weight="normal" text-decoration="none" x="530.970458984375" y="117.5">/ type</text></g></g><g transform="translate(-146,-12) scale(1,1)"><path fill="none" stroke="#000000" d="M 312 90 L 216 90 L 216 130 L 312 130" stroke-miterlimit="10"/></g><g transform="translate(-146,-12) scale(1,1)"><path fill="none" stroke="#000000" d="M 301.83732514237585 134.209517756016 L 312 130 L 301.83732514237585 125.79048224398402" stroke-miterlimit="10"/></g><g transform="translate(-146,-12) scale(1,1)"><g><path fill="none" stroke="none"/><text fill="#000000" stroke="none" font-family="Arial" font-size="13px" font-style="normal" font-weight="normal" text-decoration="none" x="243.5" y="123.5">/ operands</text></g></g><g transform="translate(-146,-12) scale(1,1)"><g><path fill="none" stroke="none"/><text fill="#000000" stroke="none" font-family="Arial" font-size="13px" font-style="normal" font-weight="normal" text-decoration="none" x="279.5" y="148.5">0..*</text></g></g><g transform="translate(-146,-12) scale(1,1)"><rect fill="#ffffff" stroke="none" x="296" y="214" width="202" height="94"/></g><g transform="translate(-146,-12) scale(1,1)"><path fill="none" stroke="#000000" d="M 296 214 L 498 214 L 498 308 L 296 308 L 296 214 Z Z" stroke-miterlimit="10"/></g><g transform="translate(-146,-12) scale(1,1)"><path fill="none" stroke="#000000" d="M 296 239 L 498 239" stroke-miterlimit="10"/></g><g transform="translate(-146,-12) scale(1,1)"><g><path fill="none" stroke="none"/><text fill="#000000" stroke="none" font-family="Arial" font-size="13px" font-style="normal" font-weight="bold" text-decoration="none" x="380" y="233.5">INFIX</text></g></g><g transform="translate(-146,-12) scale(1,1)"><g><path fill="none" stroke="none"/><text fill="#000000" stroke="none" font-family="Arial" font-size="13px" font-style="normal" font-weight="normal" text-decoration="none" x="301" y="256.5">operator: String</text></g></g><g transform="translate(-146,-12) scale(1,1)"><g><path fill="none" stroke="none"/><text fill="#000000" stroke="none" font-family="Arial" font-size="13px" font-style="normal" font-weight="normal" text-decoration="none" x="301" y="271.5">«abstract»/operation: String[0..1]</text></g></g><g transform="translate(-146,-12) scale(1,1)"><g><path fill="none" stroke="none"/><text fill="#000000" stroke="none" font-family="Arial" font-size="13px" font-style="normal" font-weight="normal" text-decoration="none" x="301" y="286.5">«redefined»/numeric: Boolean</text></g></g><g transform="translate(-146,-12) scale(1,1)"><g><path fill="none" stroke="none"/><text fill="#000000" stroke="none" font-family="Arial" font-size="13px" font-style="normal" font-weight="normal" text-decoration="none" x="301" y="301.5">«redefined»/binary_float: Boolean</text></g></g><g transform="translate(-146,-12) scale(1,1)"><path fill="none" stroke="#000000" d="M 396 214 L 396 174" stroke-miterlimit="10"/></g><g transform="translate(-146,-12) scale(1,1)"><path fill="#FFFFFF" stroke="none" d="M 404.419035512032 194.3253497152483 L 396 174 L 387.580964487968 194.3253497152483"/></g><g transform="translate(-146,-12) scale(1,1)"><path fill="none" stroke="#000000" d="M 404.419035512032 194.3253497152483 L 396 174 L 387.580964487968 194.3253497152483 L 404.419035512032 194.3253497152483" stroke-miterlimit="10"/></g><g transform="translate(-146,-12) scale(1,1)"><path fill="none" stroke="#000000" d="M 491 390 L 702 390 L 702 136" stroke-miterlimit="10"/></g><g transform="translate(-146,-12) scale(1,1)"><path fill="none" stroke="#000000" d="M 706.209517756016 146.16267485762415 L 702 136 L 697.790482243984 146.16267485762415" stroke-miterlimit="10"/></g><g transform="translate(-146,-12) scale(1,1)"><g><path fill="none" stroke="none"/><text fill="#000000" stroke="none" font-family="Arial" font-size="13px" font-style="normal" font-weight="normal" text-decoration="none" x="627.5" y="381.5">«redefined»</text></g></g><g transform="translate(-146,-12) scale(1,1)"><g><path fill="none" stroke="none"/><text fill="#000000" stroke="none" font-family="Arial" font-size="13px" font-style="normal" font-weight="normal" text-decoration="none" x="707.5" y="157.5">/ type</text></g></g><g transform="translate(-146,-12) scale(1,1)"><path fill="none" stroke="#000000" d="M 296 234 L 190 234 L 190 48 L 324 48 L 324 82" stroke-miterlimit="10"/></g><g transform="translate(-146,-12) scale(1,1)"><path fill="none" stroke="#000000" d="M 319.790482243984 71.83732514237585 L 324 82 L 328.209517756016 71.83732514237585" stroke-miterlimit="10"/></g><g transform="translate(-146,-12) scale(1,1)"><g><path fill="none" stroke="none"/><text fill="#000000" stroke="none" font-family="Arial" font-size="13px" font-style="normal" font-weight="normal" text-decoration="none" x="328.5" y="68.5">/ left</text></g></g><g transform="translate(-146,-12) scale(1,1)"><path fill="none" stroke="#000000" d="M 296 286 L 156 286 L 156 22 L 388 22 L 388 82" stroke-miterlimit="10"/></g><g transform="translate(-146,-12) scale(1,1)"><path fill="none" stroke="#000000" d="M 383.790482243984 71.83732514237585 L 388 82 L 392.209517756016 71.83732514237585" stroke-miterlimit="10"/></g><g transform="translate(-146,-12) scale(1,1)"><g><path fill="none" stroke="none"/><text fill="#000000" stroke="none" font-family="Arial" font-size="13px" font-style="normal" font-weight="normal" text-decoration="none" x="393.5" y="64.5">/ right</text></g></g><g transform="translate(-146,-12) scale(1,1)"><rect fill="#ffffff" stroke="none" x="304" y="352" width="187" height="68"/></g><g transform="translate(-146,-12) scale(1,1)"><path fill="none" stroke="#000000" d="M 304 352 L 491 352 L 491 420 L 304 420 L 304 352 Z Z" stroke-miterlimit="10"/></g><g transform="translate(-146,-12) scale(1,1)"><path fill="none" stroke="#000000" d="M 304 377 L 491 377" stroke-miterlimit="10"/></g><g transform="translate(-146,-12) scale(1,1)"><g><path fill="none" stroke="none"/><text fill="#000000" stroke="none" font-family="Arial" font-size="13px" font-style="normal" font-weight="bold" text-decoration="none" x="357.5" y="371.5">ARITHMETIC</text></g></g><g transform="translate(-146,-12) scale(1,1)"><g><path fill="none" stroke="none"/><text fill="#000000" stroke="none" font-family="Arial" font-size="13px" font-style="normal" font-weight="normal" text-decoration="none" x="309" y="394.5">«redefined»/kind = arithmetic</text></g></g><g transform="translate(-146,-12) scale(1,1)"><g><path fill="none" stroke="none"/><text fill="#000000" stroke="none" font-family="Arial" font-size="13px" font-style="normal" font-weight="normal" text-decoration="none" x="309" y="409.5">«redefined»/operation: String</text></g></g><g transform="translate(-146,-12) scale(1,1)"><path fill="none" stroke="#000000" d="M 498 262 L 582 262 L 582 136" stroke-miterlimit="10"/></g><g transform="translate(-146,-12) scale(1,1)"><path fill="none" stroke="#000000" d="M 586.209517756016 146.16267485762415 L 582 136 L 577.790482243984 146.16267485762415" stroke-miterlimit="10"/></g><g transform="translate(-146,-12) scale(1,1)"><g><path fill="none" stroke="none"/><text fill="#000000" stroke="none" font-family="Arial" font-size="13px" font-style="normal" font-weight="normal" text-decoration="none" x="587.5" y="164.5">/ undefined_type</text></g></g><g transform="translate(-146,-12) scale(1,1)"><path fill="none" stroke="#000000" d="M 396 352 L 396 308" stroke-miterlimit="10"/></g><g transform="translate(-146,-12) scale(1,1)"><path fill="#FFFFFF" stroke="none" d="M 404.419035512032 328.3253497152483 L 396 308 L 387.580964487968 328.3253497152483"/></g><g transform="translate(-146,-12) scale(1,1)"><path fill="none" stroke="#000000" d="M 404.419035512032 328.3253497152483 L 396 308 L 387.580964487968 328.3253497152483 L 404.419035512032 328.3253497152483" stroke-miterlimit="10"/></g></g></svg>