<svg version="1.1" xmlns="http://www.w3.org/2000/svg" xmlns:xlink="http://www.w3.org/1999/xlink" width="199.953125" height="259"><defs/><g><g transform="translate(-310,-189) scale(1,1)"><rect fill="#ffffff" stroke="none" x="320" y="248" width="152" height="62"/></g><g transform="translate(-310,-189) scale(1,1)"><path fill="none" stroke="#000000" d="M 320 248 L 472 248 L 472 310 L 320 310 L 320 248 Z Z" stroke-miterlimit="10"/></g><g transform="translate(-310,-189) scale(1,1)"><path fill="none" stroke="#000000" d="M 320 273 L 472 273" stroke-miterlimit="10"/></g><g transform="translate(-310,-189) scale(1,1)"><g><path fill="none" stroke="none"/><text fill="#000000" stroke="none" font-family="Arial" font-size="13px" font-style="normal" font-weight="bold" text-decoration="none" x="372" y="267.5">Concept</text></g></g><g transform="translate(-310,-189) scale(1,1)"><g><path fill="none" stroke="none"/><text fill="#000000" stroke="none" font-family="Arial" font-size="13px" font-style="normal" font-weight="normal" text-decoration="none" x="325" y="290.5">abstract: Boolean</text></g></g><g transform="translate(-310,-189) scale(1,1)"><g><path fill="none" stroke="none"/><text fill="#000000" stroke="none" font-family="Arial" font-size="13px" font-style="normal" font-weight="normal" text-decoration="none" x="325" y="305.5">name: String</text></g></g><g transform="translate(-310,-189) scale(1,1)"><path fill="none" stroke="#000000" d="M 336 248 L 336 216 L 440 216 L 440 248" stroke-miterlimit="10"/></g><g transform="translate(-310,-189) scale(1,1)"><path fill="none" stroke="#000000" d="M 435.790482243984 237.83732514237585 L 440 248 L 444.209517756016 237.83732514237585" stroke-miterlimit="10"/></g><g transform="translate(-310,-189) scale(1,1)"><g><path fill="none" stroke="none"/><text fill="#000000" stroke="none" font-family="Arial" font-size="13px" font-style="normal" font-weight="normal" text-decoration="none" x="403.191162109375" y="211.5">generalizations</text></g></g><g transform="translate(-310,-189) scale(1,1)"><g><path fill="none" stroke="none"/><text fill="#000000" stroke="none" font-family="Arial" font-size="13px" font-style="normal" font-weight="normal" text-decoration="none" x="443.9765625" y="227.5">{ordered}</text></g></g><g transform="translate(-310,-189) scale(1,1)"><g><path fill="none" stroke="none"/><text fill="#000000" stroke="none" font-family="Arial" font-size="13px" font-style="normal" font-weight="normal" text-decoration="none" x="453.5" y="242.5">0..*</text></g></g><g transform="translate(-310,-189) scale(1,1)"><rect fill="#ffffff" stroke="none" x="344" y="376" width="99" height="62"/></g><g transform="translate(-310,-189) scale(1,1)"><path fill="none" stroke="#000000" d="M 344 376 L 443 376 L 443 438 L 344 438 L 344 376 Z Z" stroke-miterlimit="10"/></g><g transform="translate(-310,-189) scale(1,1)"><path fill="none" stroke="#000000" d="M 344 401 L 443 401" stroke-miterlimit="10"/></g><g transform="translate(-310,-189) scale(1,1)"><g><path fill="none" stroke="none"/><text fill="#000000" stroke="none" font-family="Arial" font-size="13px" font-style="normal" font-weight="bold" text-decoration="none" x="369" y="395.5">Property</text></g></g><g transform="translate(-310,-189) scale(1,1)"><g><path fill="none" stroke="none"/><text fill="#000000" stroke="none" font-family="Arial" font-size="13px" font-style="normal" font-weight="normal" text-decoration="none" x="349" y="418.5">name: String</text></g></g><g transform="translate(-310,-189) scale(1,1)"><path fill="none" stroke="#000000" d="M 368 310 L 368 376" stroke-miterlimit="10"/></g><g transform="translate(-310,-189) scale(1,1)"><g><path fill="none" stroke="none"/><text fill="#000000" stroke="none" font-family="Arial" font-size="13px" font-style="normal" font-weight="normal" text-decoration="none" x="374.5" y="328.5">scope</text></g></g><g transform="translate(-310,-189) scale(1,1)"><g><path fill="none" stroke="none"/><text fill="#000000" stroke="none" font-family="Arial" font-size="13px" font-style="normal" font-weight="normal" text-decoration="none" x="351.5" y="324.5">1</text></g></g><g transform="translate(-310,-189) scale(1,1)"><g><path fill="none" stroke="none"/><text fill="#000000" stroke="none" font-family="Arial" font-size="13px" font-style="normal" font-weight="normal" text-decoration="none" x="373.5" y="356.5">elements</text></g></g><g transform="translate(-310,-189) scale(1,1)"><g><path fill="none" stroke="none"/><text fill="#000000" stroke="none" font-family="Arial" font-size="13px" font-style="normal" font-weight="normal" text-decoration="none" x="374.9765625" y="371.5">{ordered}</text></g></g><g transform="translate(-310,-189) scale(1,1)"><g><path fill="none" stroke="none"/><text fill="#000000" stroke="none" font-family="Arial" font-size="13px" font-style="normal" font-weight="normal" text-decoration="none" x="342.5" y="370.5">0..*</text></g></g></g></svg>