<svg version="1.1" xmlns="http://www.w3.org/2000/svg" xmlns:xlink="http://www.w3.org/1999/xlink" width="381.42333984375" height="226"><defs/><g><g transform="translate(-220,-222) scale(1,1)"><rect fill="#ffffff" stroke="none" x="320" y="248" width="152" height="62"/></g><g transform="translate(-220,-222) scale(1,1)"><path fill="none" stroke="#000000" d="M 320 248 L 472 248 L 472 310 L 320 310 L 320 248 Z Z" stroke-miterlimit="10"/></g><g transform="translate(-220,-222) scale(1,1)"><path fill="none" stroke="#000000" d="M 320 273 L 472 273" stroke-miterlimit="10"/></g><g transform="translate(-220,-222) scale(1,1)"><g><path fill="none" stroke="none"/><text fill="#000000" stroke="none" font-family="Arial" font-size="13px" font-style="normal" font-weight="bold" text-decoration="none" x="372" y="267.5">Concept</text></g></g><g transform="translate(-220,-222) scale(1,1)"><g><path fill="none" stroke="none"/><text fill="#000000" stroke="none" font-family="Arial" font-size="13px" font-style="normal" font-weight="normal" text-decoration="none" x="325" y="290.5">abstract: Boolean</text></g></g><g transform="translate(-220,-222) scale(1,1)"><g><path fill="none" stroke="none"/><text fill="#000000" stroke="none" font-family="Arial" font-size="13px" font-style="normal" font-weight="normal" text-decoration="none" x="325" y="305.5">name: String</text></g></g><g transform="translate(-220,-222) scale(1,1)"><path fill="none" stroke="#000000" d="M 440 248 L 440 232 L 512 232 L 512 272 L 472 272" stroke-miterlimit="10"/></g><g transform="translate(-220,-222) scale(1,1)"><path fill="none" stroke="#000000" d="M 482.16267485762415 267.790482243984 L 472 272 L 482.16267485762415 276.209517756016" stroke-miterlimit="10"/></g><g transform="translate(-220,-222) scale(1,1)"><g><path fill="none" stroke="none"/><text fill="#000000" stroke="none" font-family="Arial" font-size="13px" font-style="normal" font-weight="normal" text-decoration="none" x="479.191162109375" y="291.5">directAncestors</text></g></g><g transform="translate(-220,-222) scale(1,1)"><g><path fill="none" stroke="none"/><text fill="#000000" stroke="none" font-family="Arial" font-size="13px" font-style="normal" font-weight="normal" text-decoration="none" x="485.5" y="268.5">0..*</text></g></g><g transform="translate(-220,-222) scale(1,1)"><path fill="none" stroke="#000000" d="M 336 248 L 336 232 L 264 232 L 264 272 L 320 272" stroke-miterlimit="10"/></g><g transform="translate(-220,-222) scale(1,1)"><path fill="none" stroke="#000000" d="M 309.83732514237585 276.209517756016 L 320 272 L 309.83732514237585 267.790482243984" stroke-miterlimit="10"/></g><g transform="translate(-220,-222) scale(1,1)"><g><path fill="none" stroke="none"/><text fill="#000000" stroke="none" font-family="Arial" font-size="13px" font-style="normal" font-weight="normal" text-decoration="none" x="230.62646484375" y="292.5">/ allAncestors</text></g></g><g transform="translate(-220,-222) scale(1,1)"><g><path fill="none" stroke="none"/><text fill="#000000" stroke="none" font-family="Arial" font-size="13px" font-style="normal" font-weight="normal" text-decoration="none" x="287.5" y="267.5">0..*</text></g></g><g transform="translate(-220,-222) scale(1,1)"><rect fill="#ffffff" stroke="none" x="344" y="376" width="99" height="62"/></g><g transform="translate(-220,-222) scale(1,1)"><path fill="none" stroke="#000000" d="M 344 376 L 443 376 L 443 438 L 344 438 L 344 376 Z Z" stroke-miterlimit="10"/></g><g transform="translate(-220,-222) scale(1,1)"><path fill="none" stroke="#000000" d="M 344 401 L 443 401" stroke-miterlimit="10"/></g><g transform="translate(-220,-222) scale(1,1)"><g><path fill="none" stroke="none"/><text fill="#000000" stroke="none" font-family="Arial" font-size="13px" font-style="normal" font-weight="bold" text-decoration="none" x="369" y="395.5">Property</text></g></g><g transform="translate(-220,-222) scale(1,1)"><g><path fill="none" stroke="none"/><text fill="#000000" stroke="none" font-family="Arial" font-size="13px" font-style="normal" font-weight="normal" text-decoration="none" x="349" y="418.5">name: String</text></g></g><g transform="translate(-220,-222) scale(1,1)"><path fill="none" stroke="#000000" d="M 368 310 L 368 376" stroke-miterlimit="10"/></g><g transform="translate(-220,-222) scale(1,1)"><g><path fill="none" stroke="none"/><text fill="#000000" stroke="none" font-family="Arial" font-size="13px" font-style="normal" font-weight="normal" text-decoration="none" x="374.5" y="328.5">scope</text></g></g><g transform="translate(-220,-222) scale(1,1)"><g><path fill="none" stroke="none"/><text fill="#000000" stroke="none" font-family="Arial" font-size="13px" font-style="normal" font-weight="normal" text-decoration="none" x="373.5" y="363.5">elements</text></g></g><g transform="translate(-220,-222) scale(1,1)"><g><path fill="none" stroke="none"/><text fill="#000000" stroke="none" font-family="Arial" font-size="13px" font-style="normal" font-weight="normal" text-decoration="none" x="338.5" y="371.5">0..*</text></g></g><g transform="translate(-220,-222) scale(1,1)"><path fill="none" stroke="#000000" d="M 328 310 L 328 392 L 344 392" stroke-miterlimit="10"/></g><g transform="translate(-220,-222) scale(1,1)"><path fill="none" stroke="#000000" d="M 333.83732514237585 396.209517756016 L 344 392 L 333.83732514237585 387.790482243984" stroke-miterlimit="10"/></g><g transform="translate(-220,-222) scale(1,1)"><g><path fill="none" stroke="none"/><text fill="#000000" stroke="none" font-family="Arial" font-size="13px" font-style="normal" font-weight="normal" text-decoration="none" x="239.308837890625" y="387.5">/ allProperties</text></g></g><g transform="translate(-220,-222) scale(1,1)"><g><path fill="none" stroke="none"/><text fill="#000000" stroke="none" font-family="Arial" font-size="13px" font-style="normal" font-weight="normal" text-decoration="none" x="318.5" y="410.5">0..*</text></g></g><g transform="translate(-220,-222) scale(1,1)"><path fill="none" stroke="#000000" d="M 464 310 L 464 392 L 443 392" stroke-miterlimit="10"/></g><g transform="translate(-220,-222) scale(1,1)"><path fill="none" stroke="#000000" d="M 453.16267485762415 387.790482243984 L 443 392 L 453.16267485762415 396.209517756016" stroke-miterlimit="10"/></g><g transform="translate(-220,-222) scale(1,1)"><g><path fill="none" stroke="none"/><text fill="#000000" stroke="none" font-family="Arial" font-size="13px" font-style="normal" font-weight="normal" text-decoration="none" x="471.211669921875" y="388.5">/ inheritedProperties</text></g></g><g transform="translate(-220,-222) scale(1,1)"><g><path fill="none" stroke="none"/><text fill="#000000" stroke="none" font-family="Arial" font-size="13px" font-style="normal" font-weight="normal" text-decoration="none" x="446.5" y="411.5">0..*</text></g></g></g></svg>