<svg version="1.1" xmlns="http://www.w3.org/2000/svg" xmlns:xlink="http://www.w3.org/1999/xlink" width="322" height="172"><defs/><g><g transform="translate(-302,-126) scale(1,1)"><rect fill="#ffffff" stroke="none" x="312" y="224" width="83" height="56"/></g><g transform="translate(-302,-126) scale(1,1)"><path fill="none" stroke="#000000" d="M 312 224 L 395 224 L 395 280 L 312 280 L 312 224 Z Z" stroke-miterlimit="10"/></g><g transform="translate(-302,-126) scale(1,1)"><path fill="none" stroke="#000000" d="M 312 249 L 395 249" stroke-miterlimit="10"/></g><g transform="translate(-302,-126) scale(1,1)"><g><path fill="none" stroke="none"/><text fill="#000000" stroke="none" font-family="Arial" font-size="13px" font-style="normal" font-weight="bold" text-decoration="none" x="321" y="243.5">Expression</text></g></g><g transform="translate(-302,-126) scale(1,1)"><g><path fill="none" stroke="none"/><text fill="#000000" stroke="none" font-family="Arial" font-size="13px" font-style="normal" font-weight="normal" text-decoration="none" x="317" y="266.5">kind: String</text></g></g><g transform="translate(-302,-126) scale(1,1)"><rect fill="#ffffff" stroke="none" x="496" y="216" width="118" height="72"/></g><g transform="translate(-302,-126) scale(1,1)"><path fill="none" stroke="#000000" d="M 496 216 L 614 216 L 614 288 L 496 288 L 496 216 Z Z" stroke-miterlimit="10"/></g><g transform="translate(-302,-126) scale(1,1)"><path fill="none" stroke="#000000" d="M 496 241 L 614 241" stroke-miterlimit="10"/></g><g transform="translate(-302,-126) scale(1,1)"><g><path fill="none" stroke="none"/><text fill="#000000" stroke="none" font-family="Arial" font-size="13px" font-style="normal" font-weight="bold" text-decoration="none" x="540.5" y="235.5">Type</text></g></g><g transform="translate(-302,-126) scale(1,1)"><g><path fill="none" stroke="none"/><text fill="#000000" stroke="none" font-family="Arial" font-size="13px" font-style="normal" font-weight="normal" text-decoration="none" x="501" y="258.5">name: String</text></g></g><g transform="translate(-302,-126) scale(1,1)"><g><path fill="none" stroke="none"/><text fill="#000000" stroke="none" font-family="Arial" font-size="13px" font-style="normal" font-weight="normal" text-decoration="none" x="501" y="273.5">cardinality: String</text></g></g><g transform="translate(-302,-126) scale(1,1)"><path fill="none" stroke="#000000" d="M 396 252 L 495 252" stroke-miterlimit="10"/></g><g transform="translate(-302,-126) scale(1,1)"><path fill="none" stroke="#000000" d="M 484.83732514237585 256.209517756016 L 495 252 L 484.83732514237585 247.790482243984" stroke-miterlimit="10"/></g><g transform="translate(-302,-126) scale(1,1)"><g><path fill="none" stroke="none"/><text fill="#000000" stroke="none" font-family="Arial" font-size="13px" font-style="normal" font-weight="normal" text-decoration="none" x="404.5" y="243.5">/ type</text></g></g><g transform="translate(-302,-126) scale(1,1)"><rect fill="#ffffff" stroke="none" x="312" y="136" width="80" height="32"/></g><g transform="translate(-302,-126) scale(1,1)"><path fill="none" stroke="#000000" d="M 312 136 L 392 136 L 392 168 L 312 168 L 312 136 Z Z" stroke-miterlimit="10"/></g><g transform="translate(-302,-126) scale(1,1)"><g><path fill="none" stroke="none"/><text fill="#000000" stroke="none" font-family="Arial" font-size="13px" font-style="normal" font-weight="bold" text-decoration="none" x="333.5" y="155.5">Scope</text></g></g><g transform="translate(-302,-126) scale(1,1)"><path fill="none" stroke="#000000" d="M 353 223 L 352 169" stroke-miterlimit="10"/></g><g transform="translate(-302,-126) scale(1,1)"><path fill="#FFFFFF" stroke="none" d="M 360.79392313204613 189.16598413040293 L 352 169 L 343.9587385519948 189.47774680781131"/></g><g transform="translate(-302,-126) scale(1,1)"><path fill="none" stroke="#000000" d="M 360.79392313204613 189.16598413040293 L 352 169 L 343.9587385519948 189.47774680781131 L 360.79392313204613 189.16598413040293" stroke-miterlimit="10"/></g></g></svg>