<svg version="1.1" xmlns="http://www.w3.org/2000/svg" xmlns:xlink="http://www.w3.org/1999/xlink" width="348" height="230"><defs/><g><g transform="translate(-206,-78) scale(1,1)"><rect fill="#ffffff" stroke="none" x="312" y="232" width="95" height="56"/></g><g transform="translate(-206,-78) scale(1,1)"><path fill="none" stroke="#000000" d="M 312 232 L 407 232 L 407 288 L 312 288 L 312 232 Z Z" stroke-miterlimit="10"/></g><g transform="translate(-206,-78) scale(1,1)"><path fill="none" stroke="#000000" d="M 312 257 L 407 257" stroke-miterlimit="10"/></g><g transform="translate(-206,-78) scale(1,1)"><g><path fill="none" stroke="none"/><text fill="#000000" stroke="none" font-family="Arial" font-size="13px" font-style="normal" font-weight="bold" text-decoration="none" x="316.5" y="251.5">EXPRESSION</text></g></g><g transform="translate(-206,-78) scale(1,1)"><g><path fill="none" stroke="none"/><text fill="#000000" stroke="none" font-family="Arial" font-size="13px" font-style="normal" font-weight="normal" text-decoration="none" x="317" y="274.5">kind: String</text></g></g><g transform="translate(-206,-78) scale(1,1)"><rect fill="#ffffff" stroke="none" x="464" y="248" width="80" height="24"/></g><g transform="translate(-206,-78) scale(1,1)"><path fill="none" stroke="#000000" d="M 464 248 L 544 248 L 544 272 L 464 272 L 464 248 Z Z" stroke-miterlimit="10"/></g><g transform="translate(-206,-78) scale(1,1)"><g><path fill="none" stroke="none"/><text fill="#000000" stroke="none" font-family="Arial" font-size="13px" font-style="normal" font-weight="bold" text-decoration="none" x="486.5" y="267.5">TYPE</text></g></g><g transform="translate(-206,-78) scale(1,1)"><path fill="none" stroke="#000000" d="M 408 260 L 463 260" stroke-miterlimit="10"/></g><g transform="translate(-206,-78) scale(1,1)"><path fill="none" stroke="#000000" d="M 452.83732514237585 264.209517756016 L 463 260 L 452.83732514237585 255.790482243984" stroke-miterlimit="10"/></g><g transform="translate(-206,-78) scale(1,1)"><g><path fill="none" stroke="none"/><text fill="#000000" stroke="none" font-family="Arial" font-size="13px" font-style="normal" font-weight="normal" text-decoration="none" x="423.5" y="251.5">/ type</text></g></g><g transform="translate(-206,-78) scale(1,1)"><path fill="none" stroke="#000000" d="M 312 240 L 216 240 L 216 280 L 312 280" stroke-miterlimit="10"/></g><g transform="translate(-206,-78) scale(1,1)"><path fill="none" stroke="#000000" d="M 301.83732514237585 284.209517756016 L 312 280 L 301.83732514237585 275.790482243984" stroke-miterlimit="10"/></g><g transform="translate(-206,-78) scale(1,1)"><g><path fill="none" stroke="none"/><text fill="#000000" stroke="none" font-family="Arial" font-size="13px" font-style="normal" font-weight="normal" text-decoration="none" x="243.5" y="273.5">/ operands</text></g></g><g transform="translate(-206,-78) scale(1,1)"><g><path fill="none" stroke="none"/><text fill="#000000" stroke="none" font-family="Arial" font-size="13px" font-style="normal" font-weight="normal" text-decoration="none" x="279.5" y="298.5">0..*</text></g></g><g transform="translate(-206,-78) scale(1,1)"><rect fill="#ffffff" stroke="none" x="320" y="160" width="72" height="24"/></g><g transform="translate(-206,-78) scale(1,1)"><path fill="none" stroke="#000000" d="M 320 160 L 392 160 L 392 184 L 320 184 L 320 160 Z Z" stroke-miterlimit="10"/></g><g transform="translate(-206,-78) scale(1,1)"><g><path fill="none" stroke="none"/><text fill="#000000" stroke="none" font-family="Arial" font-size="13px" font-style="normal" font-weight="bold" text-decoration="none" x="333" y="179.5">SCOPE</text></g></g><g transform="translate(-206,-78) scale(1,1)"><rect fill="#ffffff" stroke="none" x="296" y="88" width="126" height="24"/></g><g transform="translate(-206,-78) scale(1,1)"><path fill="none" stroke="#000000" d="M 296 88 L 422 88 L 422 112 L 296 112 L 296 88 Z Z" stroke-miterlimit="10"/></g><g transform="translate(-206,-78) scale(1,1)"><g><path fill="none" stroke="none"/><text fill="#000000" stroke="none" font-family="Arial" font-size="13px" font-style="normal" font-weight="bold" text-decoration="none" x="301.5" y="107.5">MODEL_ELEMENT</text></g></g><g transform="translate(-206,-78) scale(1,1)"><path fill="none" stroke="#000000" d="M 354 232 L 354 184" stroke-miterlimit="10"/></g><g transform="translate(-206,-78) scale(1,1)"><path fill="#FFFFFF" stroke="none" d="M 362.419035512032 204.3253497152483 L 354 184 L 345.580964487968 204.3253497152483"/></g><g transform="translate(-206,-78) scale(1,1)"><path fill="none" stroke="#000000" d="M 362.419035512032 204.3253497152483 L 354 184 L 345.580964487968 204.3253497152483 L 362.419035512032 204.3253497152483" stroke-miterlimit="10"/></g><g transform="translate(-206,-78) scale(1,1)"><path fill="none" stroke="#000000" d="M 354 160 L 354 112" stroke-miterlimit="10"/></g><g transform="translate(-206,-78) scale(1,1)"><path fill="#FFFFFF" stroke="none" d="M 362.419035512032 132.3253497152483 L 354 112 L 345.580964487968 132.3253497152483"/></g><g transform="translate(-206,-78) scale(1,1)"><path fill="none" stroke="#000000" d="M 362.419035512032 132.3253497152483 L 354 112 L 345.580964487968 132.3253497152483 L 362.419035512032 132.3253497152483" stroke-miterlimit="10"/></g><g transform="translate(-206,-78) scale(1,1)"><path fill="none" stroke="#000000" d="M 412 112 L 412 172 L 392 172" stroke-miterlimit="10"/></g><g transform="translate(-206,-78) scale(1,1)"><g><path fill="none" stroke="none"/><text fill="#000000" stroke="none" font-family="Arial" font-size="13px" font-style="normal" font-weight="normal" text-decoration="none" x="415.5" y="130.5">members</text></g></g><g transform="translate(-206,-78) scale(1,1)"><g><path fill="none" stroke="none"/><text fill="#000000" stroke="none" font-family="Arial" font-size="13px" font-style="normal" font-weight="normal" text-decoration="none" x="387.5" y="130.5">0..*</text></g></g><g transform="translate(-206,-78) scale(1,1)"><g><path fill="none" stroke="none"/><text fill="#000000" stroke="none" font-family="Arial" font-size="13px" font-style="normal" font-weight="normal" text-decoration="none" x="418.5" y="176.5">parent</text></g></g><g transform="translate(-206,-78) scale(1,1)"><g><path fill="none" stroke="none"/><text fill="#000000" stroke="none" font-family="Arial" font-size="13px" font-style="normal" font-weight="normal" text-decoration="none" x="394.5" y="191.5">0..1</text></g></g></g></svg>