<svg version="1.1" xmlns="http://www.w3.org/2000/svg" xmlns:xlink="http://www.w3.org/1999/xlink" width="348" height="198"><defs/><g><g transform="translate(-206,-72) scale(1,1)"><rect fill="#ffffff" stroke="none" x="312" y="82" width="95" height="56"/></g><g transform="translate(-206,-72) scale(1,1)"><path fill="none" stroke="#000000" d="M 312 82 L 407 82 L 407 138 L 312 138 L 312 82 Z Z" stroke-miterlimit="10"/></g><g transform="translate(-206,-72) scale(1,1)"><path fill="none" stroke="#000000" d="M 312 107 L 407 107" stroke-miterlimit="10"/></g><g transform="translate(-206,-72) scale(1,1)"><g><path fill="none" stroke="none"/><text fill="#000000" stroke="none" font-family="Arial" font-size="13px" font-style="normal" font-weight="bold" text-decoration="none" x="316.5" y="101.5">EXPRESSION</text></g></g><g transform="translate(-206,-72) scale(1,1)"><g><path fill="none" stroke="none"/><text fill="#000000" stroke="none" font-family="Arial" font-size="13px" font-style="normal" font-weight="normal" text-decoration="none" x="317" y="124.5">kind: String</text></g></g><g transform="translate(-206,-72) scale(1,1)"><rect fill="#ffffff" stroke="none" x="464" y="98" width="80" height="24"/></g><g transform="translate(-206,-72) scale(1,1)"><path fill="none" stroke="#000000" d="M 464 98 L 544 98 L 544 122 L 464 122 L 464 98 Z Z" stroke-miterlimit="10"/></g><g transform="translate(-206,-72) scale(1,1)"><g><path fill="none" stroke="none"/><text fill="#000000" stroke="none" font-family="Arial" font-size="13px" font-style="normal" font-weight="bold" text-decoration="none" x="486.5" y="117.5">TYPE</text></g></g><g transform="translate(-206,-72) scale(1,1)"><path fill="none" stroke="#000000" d="M 408 110 L 463 110" stroke-miterlimit="10"/></g><g transform="translate(-206,-72) scale(1,1)"><path fill="none" stroke="#000000" d="M 452.83732514237585 114.20951775601598 L 463 110 L 452.83732514237585 105.79048224398402" stroke-miterlimit="10"/></g><g transform="translate(-206,-72) scale(1,1)"><g><path fill="none" stroke="none"/><text fill="#000000" stroke="none" font-family="Arial" font-size="13px" font-style="normal" font-weight="normal" text-decoration="none" x="423.5" y="101.5">/ type</text></g></g><g transform="translate(-206,-72) scale(1,1)"><path fill="none" stroke="#000000" d="M 312 90 L 216 90 L 216 130 L 312 130" stroke-miterlimit="10"/></g><g transform="translate(-206,-72) scale(1,1)"><path fill="none" stroke="#000000" d="M 301.83732514237585 134.209517756016 L 312 130 L 301.83732514237585 125.79048224398402" stroke-miterlimit="10"/></g><g transform="translate(-206,-72) scale(1,1)"><g><path fill="none" stroke="none"/><text fill="#000000" stroke="none" font-family="Arial" font-size="13px" font-style="normal" font-weight="normal" text-decoration="none" x="243.5" y="123.5">/ operands</text></g></g><g transform="translate(-206,-72) scale(1,1)"><g><path fill="none" stroke="none"/><text fill="#000000" stroke="none" font-family="Arial" font-size="13px" font-style="normal" font-weight="normal" text-decoration="none" x="279.5" y="148.5">0..*</text></g></g><g transform="translate(-206,-72) scale(1,1)"><rect fill="#ffffff" stroke="none" x="310" y="198" width="96" height="62"/></g><g transform="translate(-206,-72) scale(1,1)"><path fill="none" stroke="#000000" d="M 310 198 L 406 198 L 406 260 L 310 260 L 310 198 Z Z" stroke-miterlimit="10"/></g><g transform="translate(-206,-72) scale(1,1)"><path fill="none" stroke="#000000" d="M 310 223 L 406 223" stroke-miterlimit="10"/></g><g transform="translate(-206,-72) scale(1,1)"><g><path fill="none" stroke="none"/><text fill="#000000" stroke="none" font-family="Arial" font-size="13px" font-style="normal" font-weight="bold" text-decoration="none" x="331.5" y="217.5">LITERAL</text></g></g><g transform="translate(-206,-72) scale(1,1)"><g><path fill="none" stroke="none"/><text fill="#000000" stroke="none" font-family="Arial" font-size="13px" font-style="normal" font-weight="normal" text-decoration="none" x="315" y="240.5">text: String</text></g></g><g transform="translate(-206,-72) scale(1,1)"><g><path fill="none" stroke="none"/><text fill="#000000" stroke="none" font-family="Arial" font-size="13px" font-style="normal" font-weight="normal" text-decoration="none" x="315" y="255.5">/kind = literal</text></g></g><g transform="translate(-206,-72) scale(1,1)"><path fill="none" stroke="#000000" d="M 359 198 L 359 138" stroke-miterlimit="10"/></g><g transform="translate(-206,-72) scale(1,1)"><path fill="#FFFFFF" stroke="none" d="M 367.419035512032 158.3253497152483 L 359 138 L 350.580964487968 158.3253497152483"/></g><g transform="translate(-206,-72) scale(1,1)"><path fill="none" stroke="#000000" d="M 367.419035512032 158.3253497152483 L 359 138 L 350.580964487968 158.3253497152483 L 367.419035512032 158.3253497152483" stroke-miterlimit="10"/></g><g transform="translate(-206,-72) scale(1,1)"><path fill="none" stroke="#000000" d="M 406 228 L 502 228 L 502 122" stroke-miterlimit="10"/></g><g transform="translate(-206,-72) scale(1,1)"><path fill="none" stroke="#000000" d="M 506.209517756016 132.16267485762415 L 502 122 L 497.790482243984 132.16267485762415" stroke-miterlimit="10"/></g><g transform="translate(-206,-72) scale(1,1)"><g><path fill="none" stroke="none"/><text fill="#000000" stroke="none" font-family="Arial" font-size="13px" font-style="normal" font-weight="normal" text-decoration="none" x="511.5" y="143.5">type</text></g></g></g></svg>