<svg version="1.1" xmlns="http://www.w3.org/2000/svg" xmlns:xlink="http://www.w3.org/1999/xlink" width="715.3525390625" height="397"><defs/><g><g transform="translate(-38,-14) scale(1,1)"><rect fill="#ffffff" stroke="none" x="204" y="82" width="187" height="78"/></g><g transform="translate(-38,-14) scale(1,1)"><path fill="none" stroke="#000000" d="M 204 82 L 391 82 L 391 160 L 204 160 L 204 82 Z Z" stroke-miterlimit="10"/></g><g transform="translate(-38,-14) scale(1,1)"><path fill="none" stroke="#000000" d="M 204 120 L 391 120" stroke-miterlimit="10"/></g><g transform="translate(-38,-14) scale(1,1)"><g><path fill="none" stroke="none"/><text fill="#000000" stroke="none" font-family="Arial" font-size="13px" font-style="normal" font-weight="normal" text-decoration="none" x="258.5" y="99.5">«abstraction»</text></g></g><g transform="translate(-38,-14) scale(1,1)"><g><path fill="none" stroke="none"/><text fill="#000000" stroke="none" font-family="Arial" font-size="13px" font-style="italic" font-weight="bold" text-decoration="none" x="254.5" y="114.5">EXPRESSION</text></g></g><g transform="translate(-38,-14) scale(1,1)"><g><path fill="none" stroke="none"/><text fill="#000000" stroke="none" font-family="Arial" font-size="13px" font-style="normal" font-weight="normal" text-decoration="none" x="209" y="137.5">«abstract»/kind: String</text></g></g><g transform="translate(-38,-14) scale(1,1)"><g><path fill="none" stroke="none"/><text fill="#000000" stroke="none" font-family="Arial" font-size="13px" font-style="normal" font-weight="normal" text-decoration="none" x="209" y="152.5">/relational: Boolean</text></g></g><g transform="translate(-38,-14) scale(1,1)"><rect fill="#ffffff" stroke="none" x="464" y="106" width="206" height="37"/></g><g transform="translate(-38,-14) scale(1,1)"><path fill="none" stroke="#000000" d="M 464 106 L 670 106 L 670 143 L 464 143 L 464 106 Z Z" stroke-miterlimit="10"/></g><g transform="translate(-38,-14) scale(1,1)"><g><path fill="none" stroke="none"/><text fill="#000000" stroke="none" font-family="Arial" font-size="13px" font-style="normal" font-weight="normal" text-decoration="none" x="528" y="123.5">«abstraction»</text></g></g><g transform="translate(-38,-14) scale(1,1)"><g><path fill="none" stroke="none"/><text fill="#000000" stroke="none" font-family="Arial" font-size="13px" font-style="italic" font-weight="bold" text-decoration="none" x="549.5" y="138.5">TYPE</text></g></g><g transform="translate(-38,-14) scale(1,1)"><path fill="none" stroke="#000000" d="M 392 122 L 463 123" stroke-miterlimit="10"/></g><g transform="translate(-38,-14) scale(1,1)"><path fill="none" stroke="#000000" d="M 452.77904989162334 127.0659782195771 L 463 123 L 452.89761609697774 118.64777763941727" stroke-miterlimit="10"/></g><g transform="translate(-38,-14) scale(1,1)"><g><path fill="none" stroke="none"/><text fill="#000000" stroke="none" font-family="Arial" font-size="13px" font-style="normal" font-weight="normal" text-decoration="none" x="395.24609375" y="140.5">«abstract»</text></g></g><g transform="translate(-38,-14) scale(1,1)"><g><path fill="none" stroke="none"/><text fill="#000000" stroke="none" font-family="Arial" font-size="13px" font-style="normal" font-weight="normal" text-decoration="none" x="423.970458984375" y="114.5">/ type</text></g></g><g transform="translate(-38,-14) scale(1,1)"><path fill="none" stroke="#000000" d="M 204 90 L 108 90 L 108 130 L 204 130" stroke-miterlimit="10"/></g><g transform="translate(-38,-14) scale(1,1)"><path fill="none" stroke="#000000" d="M 193.83732514237585 134.209517756016 L 204 130 L 193.83732514237585 125.79048224398402" stroke-miterlimit="10"/></g><g transform="translate(-38,-14) scale(1,1)"><g><path fill="none" stroke="none"/><text fill="#000000" stroke="none" font-family="Arial" font-size="13px" font-style="normal" font-weight="normal" text-decoration="none" x="135.5" y="123.5">/ operands</text></g></g><g transform="translate(-38,-14) scale(1,1)"><g><path fill="none" stroke="none"/><text fill="#000000" stroke="none" font-family="Arial" font-size="13px" font-style="normal" font-weight="normal" text-decoration="none" x="171.5" y="148.5">0..*</text></g></g><g transform="translate(-38,-14) scale(1,1)"><rect fill="#ffffff" stroke="none" x="188" y="200" width="209.82080078125" height="88"/></g><g transform="translate(-38,-14) scale(1,1)"><path fill="none" stroke="#000000" d="M 188 200 L 397.82080078125 200 L 397.82080078125 288 L 188 288 L 188 200 Z Z" stroke-miterlimit="10"/></g><g transform="translate(-38,-14) scale(1,1)"><path fill="none" stroke="#000000" d="M 188 238 L 397.82080078125 238" stroke-miterlimit="10"/></g><g transform="translate(-38,-14) scale(1,1)"><g><path fill="none" stroke="none"/><text fill="#000000" stroke="none" font-family="Arial" font-size="13px" font-style="normal" font-weight="normal" text-decoration="none" x="253.910400390625" y="217.5">«abstraction»</text></g></g><g transform="translate(-38,-14) scale(1,1)"><g><path fill="none" stroke="none"/><text fill="#000000" stroke="none" font-family="Arial" font-size="13px" font-style="italic" font-weight="bold" text-decoration="none" x="275.910400390625" y="232.5">INFIX</text></g></g><g transform="translate(-38,-14) scale(1,1)"><g><path fill="none" stroke="none"/><text fill="#000000" stroke="none" font-family="Arial" font-size="13px" font-style="normal" font-weight="normal" text-decoration="none" x="193" y="255.5">operator: String</text></g></g><g transform="translate(-38,-14) scale(1,1)"><g><path fill="none" stroke="none"/><text fill="#000000" stroke="none" font-family="Arial" font-size="13px" font-style="normal" font-weight="normal" text-decoration="none" x="193" y="270.5">«abstract»/operation: String[0..1]</text></g></g><g transform="translate(-38,-14) scale(1,1)"><path fill="none" stroke="#000000" d="M 288 200 L 288 160" stroke-miterlimit="10"/></g><g transform="translate(-38,-14) scale(1,1)"><path fill="#FFFFFF" stroke="none" d="M 296.419035512032 180.3253497152483 L 288 160 L 279.580964487968 180.3253497152483"/></g><g transform="translate(-38,-14) scale(1,1)"><path fill="none" stroke="#000000" d="M 296.419035512032 180.3253497152483 L 288 160 L 279.580964487968 180.3253497152483 L 296.419035512032 180.3253497152483" stroke-miterlimit="10"/></g><g transform="translate(-38,-14) scale(1,1)"><path fill="none" stroke="#000000" d="M 387 362 L 652 362 L 652 143" stroke-miterlimit="10"/></g><g transform="translate(-38,-14) scale(1,1)"><path fill="none" stroke="#000000" d="M 656.209517756016 153.16267485762415 L 652 143 L 647.790482243984 153.16267485762415" stroke-miterlimit="10"/></g><g transform="translate(-38,-14) scale(1,1)"><g><path fill="none" stroke="none"/><text fill="#000000" stroke="none" font-family="Arial" font-size="13px" font-style="normal" font-weight="normal" text-decoration="none" x="577.819580078125" y="353.5">«redefined»</text></g></g><g transform="translate(-38,-14) scale(1,1)"><g><path fill="none" stroke="none"/><text fill="#000000" stroke="none" font-family="Arial" font-size="13px" font-style="normal" font-weight="normal" text-decoration="none" x="657.17626953125" y="170.5">/ inferred_type</text></g></g><g transform="translate(-38,-14) scale(1,1)"><path fill="none" stroke="#000000" d="M 188 220 L 82 220 L 82 48 L 216 48 L 216 82" stroke-miterlimit="10"/></g><g transform="translate(-38,-14) scale(1,1)"><path fill="none" stroke="#000000" d="M 211.790482243984 71.83732514237585 L 216 82 L 220.209517756016 71.83732514237585" stroke-miterlimit="10"/></g><g transform="translate(-38,-14) scale(1,1)"><g><path fill="none" stroke="none"/><text fill="#000000" stroke="none" font-family="Arial" font-size="13px" font-style="normal" font-weight="normal" text-decoration="none" x="221.252197265625" y="68.5">/ left</text></g></g><g transform="translate(-38,-14) scale(1,1)"><path fill="none" stroke="#000000" d="M 188 272 L 48 272 L 48 24 L 280 24 L 280 82" stroke-miterlimit="10"/></g><g transform="translate(-38,-14) scale(1,1)"><path fill="none" stroke="#000000" d="M 275.790482243984 71.83732514237585 L 280 82 L 284.209517756016 71.83732514237585" stroke-miterlimit="10"/></g><g transform="translate(-38,-14) scale(1,1)"><g><path fill="none" stroke="none"/><text fill="#000000" stroke="none" font-family="Arial" font-size="13px" font-style="normal" font-weight="normal" text-decoration="none" x="285.487548828125" y="64.5">/ right</text></g></g><g transform="translate(-38,-14) scale(1,1)"><rect fill="#ffffff" stroke="none" x="196" y="326" width="191.33642578125" height="75"/></g><g transform="translate(-38,-14) scale(1,1)"><path fill="none" stroke="#000000" d="M 196 326 L 387.33642578125 326 L 387.33642578125 401 L 196 401 L 196 326 Z Z" stroke-miterlimit="10"/></g><g transform="translate(-38,-14) scale(1,1)"><path fill="none" stroke="#000000" d="M 196 364 L 387.33642578125 364" stroke-miterlimit="10"/></g><g transform="translate(-38,-14) scale(1,1)"><g><path fill="none" stroke="none"/><text fill="#000000" stroke="none" font-family="Arial" font-size="13px" font-style="normal" font-weight="normal" text-decoration="none" x="261.668212890625" y="343.5">«concept»</text></g></g><g transform="translate(-38,-14) scale(1,1)"><g><path fill="none" stroke="none"/><text fill="#000000" stroke="none" font-family="Arial" font-size="13px" font-style="normal" font-weight="bold" text-decoration="none" x="251.168212890625" y="358.5">RELATIONAL</text></g></g><g transform="translate(-38,-14) scale(1,1)"><g><path fill="none" stroke="none"/><text fill="#000000" stroke="none" font-family="Arial" font-size="13px" font-style="normal" font-weight="normal" text-decoration="none" x="201" y="381.5">«redefined»/kind = relational</text></g></g><g transform="translate(-38,-14) scale(1,1)"><g><path fill="none" stroke="none"/><text fill="#000000" stroke="none" font-family="Arial" font-size="13px" font-style="normal" font-weight="normal" text-decoration="none" x="201" y="396.5">«redefined»/operation: String</text></g></g><g transform="translate(-38,-14) scale(1,1)"><path fill="none" stroke="#000000" d="M 398 210 L 500 210 L 500 143" stroke-miterlimit="10"/></g><g transform="translate(-38,-14) scale(1,1)"><path fill="none" stroke="#000000" d="M 504.209517756016 153.16267485762415 L 500 143 L 495.790482243984 153.16267485762415" stroke-miterlimit="10"/></g><g transform="translate(-38,-14) scale(1,1)"><g><path fill="none" stroke="none"/><text fill="#000000" stroke="none" font-family="Arial" font-size="13px" font-style="normal" font-weight="normal" text-decoration="none" x="401.515869140625" y="174.5">/ undefined_type</text></g></g><g transform="translate(-38,-14) scale(1,1)"><path fill="none" stroke="#000000" d="M 288 326 L 288 288" stroke-miterlimit="10"/></g><g transform="translate(-38,-14) scale(1,1)"><path fill="#FFFFFF" stroke="none" d="M 296.419035512032 308.3253497152483 L 288 288 L 279.580964487968 308.3253497152483"/></g><g transform="translate(-38,-14) scale(1,1)"><path fill="none" stroke="#000000" d="M 296.419035512032 308.3253497152483 L 288 288 L 279.580964487968 308.3253497152483 L 296.419035512032 308.3253497152483" stroke-miterlimit="10"/></g><g transform="translate(-38,-14) scale(1,1)"><path fill="none" stroke="#000000" d="M 398 246 L 526 246 L 526 143" stroke-miterlimit="10"/></g><g transform="translate(-38,-14) scale(1,1)"><path fill="none" stroke="#000000" d="M 530.209517756016 153.16267485762415 L 526 143 L 521.790482243984 153.16267485762415" stroke-miterlimit="10"/></g><g transform="translate(-38,-14) scale(1,1)"><g><path fill="none" stroke="none"/><text fill="#000000" stroke="none" font-family="Arial" font-size="13px" font-style="normal" font-weight="normal" text-decoration="none" x="451.819580078125" y="239.5">«redefined»</text></g></g><g transform="translate(-38,-14) scale(1,1)"><g><path fill="none" stroke="none"/><text fill="#000000" stroke="none" font-family="Arial" font-size="13px" font-style="normal" font-weight="normal" text-decoration="none" x="529.5" y="185.5">/ type</text></g></g><g transform="translate(-38,-14) scale(1,1)"><path fill="none" stroke="#000000" d="M 398 278 L 634 278 L 634 143" stroke-miterlimit="10"/></g><g transform="translate(-38,-14) scale(1,1)"><path fill="none" stroke="#000000" d="M 638.209517756016 153.16267485762415 L 634 143 L 629.790482243984 153.16267485762415" stroke-miterlimit="10"/></g><g transform="translate(-38,-14) scale(1,1)"><g><path fill="none" stroke="none"/><text fill="#000000" stroke="none" font-family="Arial" font-size="13px" font-style="normal" font-weight="normal" text-decoration="none" x="565.24609375" y="271.5">«abstract»</text></g></g><g transform="translate(-38,-14) scale(1,1)"><g><path fill="none" stroke="none"/><text fill="#000000" stroke="none" font-family="Arial" font-size="13px" font-style="normal" font-weight="normal" text-decoration="none" x="547.17626953125" y="167.5">/ inferred_type</text></g></g></g></svg>