<svg version="1.1" xmlns="http://www.w3.org/2000/svg" xmlns:xlink="http://www.w3.org/1999/xlink" width="708" height="404"><defs/><g><g transform="translate(-62,-6) scale(1,1)"><path fill="#ffffff" stroke="none" d="M 72 26 L 749 26 L 749 399 L 72 399"/></g><g transform="translate(-62,-6) scale(1,1)"><path fill="#ffffff" stroke="none" d="M 72 26 L 82 16 L 759 16 L 749 26"/></g><g transform="translate(-62,-6) scale(1,1)"><path fill="#ffffff" stroke="none" d="M 759 16 L 749 26 L 749 399 L 759 389"/></g><g transform="translate(-62,-6) scale(1,1)"><path fill="none" stroke="#000000" d="M 72 26 L 749 26 L 749 399 L 72 399 L 72 26" stroke-miterlimit="10"/></g><g transform="translate(-62,-6) scale(1,1)"><path fill="none" stroke="#000000" d="M 72 26 L 82 16 L 759 16 L 749 26 L 72 26" stroke-miterlimit="10"/></g><g transform="translate(-62,-6) scale(1,1)"><path fill="none" stroke="#000000" d="M 759 16 L 749 26 L 749 399 L 759 389 L 759 16" stroke-miterlimit="10"/></g><g transform="translate(-62,-6) scale(1,1)"><g><path fill="none" stroke="none"/><text fill="#000000" stroke="none" font-family="Arial" font-size="13px" font-style="normal" font-weight="bold" text-decoration="none" x="381.5" y="45.5">: Compiler</text><path fill="none" stroke="#000000" d="M 443.5 45.5 L 378.5 45.5" stroke-miterlimit="10"/></g></g><g transform="translate(-62,-6) scale(1,1)"><rect fill="#ffffff" stroke="none" x="314" y="104" width="150" height="44"/></g><g transform="translate(-62,-6) scale(1,1)"><path fill="none" stroke="#000000" d="M 314 104 L 464 104 L 464 148 L 314 148 L 314 104 Z Z" stroke-miterlimit="10"/></g><g transform="translate(-62,-6) scale(1,1)"><rect fill="#ffffff" stroke="none" x="304" y="111" width="20" height="10"/></g><g transform="translate(-62,-6) scale(1,1)"><path fill="none" stroke="#000000" d="M 304 111 L 324 111 L 324 121 L 304 121 L 304 111 Z Z" stroke-miterlimit="10"/></g><g transform="translate(-62,-6) scale(1,1)"><rect fill="#ffffff" stroke="none" x="304" y="131" width="20" height="10"/></g><g transform="translate(-62,-6) scale(1,1)"><path fill="none" stroke="#000000" d="M 304 131 L 324 131 L 324 141 L 304 141 L 304 131 Z Z" stroke-miterlimit="10"/></g><g transform="translate(-62,-6) scale(1,1)"><g><path fill="none" stroke="none"/><text fill="#000000" stroke="none" font-family="Arial" font-size="13px" font-style="normal" font-weight="bold" text-decoration="none" x="368.5" y="123.5">Frontend</text><path fill="none" stroke="#000000" d="M 422 123.5 L 366 123.5" stroke-miterlimit="10"/></g></g><g transform="translate(-62,-6) scale(1,1)"><rect fill="#ffffff" stroke="none" x="554" y="216" width="150" height="44"/></g><g transform="translate(-62,-6) scale(1,1)"><path fill="none" stroke="#000000" d="M 554 216 L 704 216 L 704 260 L 554 260 L 554 216 Z Z" stroke-miterlimit="10"/></g><g transform="translate(-62,-6) scale(1,1)"><rect fill="#ffffff" stroke="none" x="544" y="223" width="20" height="10"/></g><g transform="translate(-62,-6) scale(1,1)"><path fill="none" stroke="#000000" d="M 544 223 L 564 223 L 564 233 L 544 233 L 544 223 Z Z" stroke-miterlimit="10"/></g><g transform="translate(-62,-6) scale(1,1)"><rect fill="#ffffff" stroke="none" x="544" y="243" width="20" height="10"/></g><g transform="translate(-62,-6) scale(1,1)"><path fill="none" stroke="#000000" d="M 544 243 L 564 243 L 564 253 L 544 253 L 544 243 Z Z" stroke-miterlimit="10"/></g><g transform="translate(-62,-6) scale(1,1)"><g><path fill="none" stroke="none"/><text fill="#000000" stroke="none" font-family="Arial" font-size="13px" font-style="normal" font-weight="bold" text-decoration="none" x="608.5" y="235.5">Backend</text><path fill="none" stroke="#000000" d="M 660.5 235.5 L 607.5 235.5" stroke-miterlimit="10"/></g></g><g transform="translate(-62,-6) scale(1,1)"><path fill="#ffffff" stroke="none" d="M 127.89999999999999 88 L 155.34 88 L 167.10000000000002 99.76 L 167.10000000000002 137 L 127.89999999999999 137"/></g><g transform="translate(-62,-6) scale(1,1)"><path fill="none" stroke="#000000" d="M 127.89999999999999 88 L 155.34 88 L 167.10000000000002 99.76 L 167.10000000000002 137 L 127.89999999999999 137 L 127.89999999999999 88" stroke-miterlimit="10"/></g><g transform="translate(-62,-6) scale(1,1)"><path fill="none" stroke="#000000" d="M 155.34 88 L 155.34 99.76 L 167.10000000000002 99.76 L 155.34 88" stroke-miterlimit="10"/></g><g transform="translate(-62,-6) scale(1,1)"><g><path fill="none" stroke="none"/><text fill="#000000" stroke="none" font-family="Arial" font-size="13px" font-style="normal" font-weight="bold" text-decoration="none" x="95.5" y="156.5">CML Source Files</text><path fill="none" stroke="#000000" d="M 202.5 156.5 L 92.5 156.5" stroke-miterlimit="10"/></g></g><g transform="translate(-62,-6) scale(1,1)"><path fill="#ffffff" stroke="none" d="M 607.62412109375 88 L 635.06412109375 88 L 646.82412109375 99.76000000000002 L 646.82412109375 137 L 607.62412109375 137"/></g><g transform="translate(-62,-6) scale(1,1)"><path fill="none" stroke="#000000" d="M 607.62412109375 88 L 635.06412109375 88 L 646.82412109375 99.76000000000002 L 646.82412109375 137 L 607.62412109375 137 L 607.62412109375 88" stroke-miterlimit="10"/></g><g transform="translate(-62,-6) scale(1,1)"><path fill="none" stroke="#000000" d="M 635.06412109375 88 L 635.06412109375 99.76000000000002 L 646.82412109375 99.76000000000002 L 635.06412109375 88" stroke-miterlimit="10"/></g><g transform="translate(-62,-6) scale(1,1)"><g><path fill="none" stroke="none"/><text fill="#000000" stroke="none" font-family="Arial" font-size="13px" font-style="normal" font-weight="bold" text-decoration="none" x="564.22412109375" y="156.5">Extensible Templates</text><path fill="none" stroke="#000000" d="M 693.72412109375 156.5 L 560.72412109375 156.5" stroke-miterlimit="10"/></g></g><g transform="translate(-62,-6) scale(1,1)"><rect fill="#ffffff" stroke="none" x="216" y="296" width="93.34521484375" height="77"/></g><g transform="translate(-62,-6) scale(1,1)"><path fill="none" stroke="#000000" d="M 216 296 L 309.34521484375 296 L 309.34521484375 373 L 216 373 L 216 296 Z Z" stroke-miterlimit="10"/></g><g transform="translate(-62,-6) scale(1,1)"><rect fill="#ffffff" stroke="none" x="216" y="296" width="93.34521484375" height="77"/></g><g transform="translate(-62,-6) scale(1,1)"><path fill="none" stroke="#000000" d="M 216 296 L 309.34521484375 296 L 309.34521484375 373 L 216 373 L 216 296 Z Z" stroke-miterlimit="10"/></g><g transform="translate(-62,-6) scale(1,1)"><path fill="none" stroke="#000000" d="M 216 321 L 309.34521484375 321" stroke-miterlimit="10"/></g><g transform="translate(-62,-6) scale(1,1)"><g><path fill="none" stroke="none"/><text fill="#000000" stroke="none" font-family="Arial" font-size="13px" font-style="normal" font-weight="bold" text-decoration="none" x="223.172607421875" y="315.5">: Target Spec</text><path fill="none" stroke="#000000" d="M 303.672607421875 315.5 L 221.672607421875 315.5" stroke-miterlimit="10"/></g></g><g transform="translate(-62,-6) scale(1,1)"><g><path fill="none" stroke="none"/><text fill="#000000" stroke="none" font-family="Arial" font-size="13px" font-style="normal" font-weight="normal" text-decoration="none" x="221" y="338.5">name</text></g></g><g transform="translate(-62,-6) scale(1,1)"><g><path fill="none" stroke="none"/><text fill="#000000" stroke="none" font-family="Arial" font-size="13px" font-style="normal" font-weight="normal" text-decoration="none" x="221" y="353.5">type</text></g></g><g transform="translate(-62,-6) scale(1,1)"><g><path fill="none" stroke="none"/><text fill="#000000" stroke="none" font-family="Arial" font-size="13px" font-style="normal" font-weight="normal" text-decoration="none" x="221" y="368.5">language</text></g></g><g transform="translate(-62,-6) scale(1,1)"><rect fill="#ffffff" stroke="none" x="336" y="224" width="113.93701171875" height="24"/></g><g transform="translate(-62,-6) scale(1,1)"><path fill="none" stroke="#000000" d="M 336 224 L 449.93701171875 224 L 449.93701171875 248 L 336 248 L 336 224 Z Z" stroke-miterlimit="10"/></g><g transform="translate(-62,-6) scale(1,1)"><rect fill="#ffffff" stroke="none" x="336" y="224" width="113.93701171875" height="24"/></g><g transform="translate(-62,-6) scale(1,1)"><path fill="none" stroke="#000000" d="M 336 224 L 449.93701171875 224 L 449.93701171875 248 L 336 248 L 336 224 Z Z" stroke-miterlimit="10"/></g><g transform="translate(-62,-6) scale(1,1)"><g><path fill="none" stroke="none"/><text fill="#000000" stroke="none" font-family="Arial" font-size="13px" font-style="normal" font-weight="bold" text-decoration="none" x="342.968505859375" y="243.5">AST: CML Model</text><path fill="none" stroke="#000000" d="M 444.968505859375 243.5 L 340.968505859375 243.5" stroke-miterlimit="10"/></g></g><g transform="translate(-62,-6) scale(1,1)"><path fill="#ffffff" stroke="none" d="M 604.4 304 L 631.84 304 L 643.6 315.76 L 643.6 353 L 604.4 353"/></g><g transform="translate(-62,-6) scale(1,1)"><path fill="none" stroke="#000000" d="M 604.4 304 L 631.84 304 L 643.6 315.76 L 643.6 353 L 604.4 353 L 604.4 304" stroke-miterlimit="10"/></g><g transform="translate(-62,-6) scale(1,1)"><path fill="none" stroke="#000000" d="M 631.84 304 L 631.84 315.76 L 643.6 315.76 L 631.84 304" stroke-miterlimit="10"/></g><g transform="translate(-62,-6) scale(1,1)"><g><path fill="none" stroke="none"/><text fill="#000000" stroke="none" font-family="Arial" font-size="13px" font-style="normal" font-weight="bold" text-decoration="none" x="589.5" y="372.5">Target Files</text><path fill="none" stroke="#000000" d="M 660.5 372.5 L 587.5 372.5" stroke-miterlimit="10"/></g></g><g transform="translate(-62,-6) scale(1,1)"><path fill="none" stroke="#000000" d="M 207 126 L 304 126" stroke-miterlimit="10"/></g><g transform="translate(-62,-6) scale(1,1)"><path fill="none" stroke="#000000" d="M 293.83732514237585 130.209517756016 L 304 126 L 293.83732514237585 121.79048224398402" stroke-miterlimit="10"/></g><g transform="translate(-62,-6) scale(1,1)"><g><path fill="none" stroke="none"/><text fill="#000000" stroke="none" font-family="Arial" font-size="13px" font-style="normal" font-weight="normal" text-decoration="none" x="240.5" y="117.5">input</text></g></g><g transform="translate(-62,-6) scale(1,1)"><path fill="none" stroke="#000000" d="M 386 148 L 386 224" stroke-miterlimit="10"/></g><g transform="translate(-62,-6) scale(1,1)"><path fill="none" stroke="#000000" d="M 381.790482243984 213.83732514237585 L 386 224 L 390.209517756016 213.83732514237585" stroke-miterlimit="10"/></g><g transform="translate(-62,-6) scale(1,1)"><g><path fill="none" stroke="none"/><text fill="#000000" stroke="none" font-family="Arial" font-size="13px" font-style="normal" font-weight="normal" text-decoration="none" x="394.66552734375" y="191.5">compilation</text></g></g><g transform="translate(-62,-6) scale(1,1)"><path fill="none" stroke="#000000" d="M 450 237 L 544 237" stroke-miterlimit="10"/></g><g transform="translate(-62,-6) scale(1,1)"><path fill="none" stroke="#000000" d="M 533.8373251423759 241.209517756016 L 544 237 L 533.8373251423758 232.790482243984" stroke-miterlimit="10"/></g><g transform="translate(-62,-6) scale(1,1)"><g><path fill="none" stroke="none"/><text fill="#000000" stroke="none" font-family="Arial" font-size="13px" font-style="normal" font-weight="normal" text-decoration="none" x="482.5" y="228.5">input</text></g></g><g transform="translate(-62,-6) scale(1,1)"><path fill="none" stroke="#000000" d="M 623 162 L 623 216" stroke-miterlimit="10"/></g><g transform="translate(-62,-6) scale(1,1)"><path fill="none" stroke="#000000" d="M 618.790482243984 205.83732514237585 L 623 216 L 627.209517756016 205.83732514237585" stroke-miterlimit="10"/></g><g transform="translate(-62,-6) scale(1,1)"><g><path fill="none" stroke="none"/><text fill="#000000" stroke="none" font-family="Arial" font-size="13px" font-style="normal" font-weight="normal" text-decoration="none" x="634.5" y="194.5">input</text></g></g><g transform="translate(-62,-6) scale(1,1)"><path fill="none" stroke="#000000" d="M 624 261 L 624 303" stroke-miterlimit="10"/></g><g transform="translate(-62,-6) scale(1,1)"><path fill="none" stroke="#000000" d="M 619.790482243984 292.83732514237585 L 624 303 L 628.209517756016 292.83732514237585" stroke-miterlimit="10"/></g><g transform="translate(-62,-6) scale(1,1)"><g><path fill="none" stroke="none"/><text fill="#000000" stroke="none" font-family="Arial" font-size="13px" font-style="normal" font-weight="normal" text-decoration="none" x="631.243408203125" y="287.5">code generation</text></g></g><g transform="translate(-62,-6) scale(1,1)"><path fill="none" stroke="#000000" d="M 310 321 L 543 259" stroke-miterlimit="10"/></g><g transform="translate(-62,-6) scale(1,1)"><path fill="none" stroke="#000000" d="M 534.2615327275513 265.68125659800177 L 543 259 L 532.0966086871804 257.5453323817692" stroke-miterlimit="10"/></g><g transform="translate(-62,-6) scale(1,1)"><g><path fill="none" stroke="none"/><text fill="#000000" stroke="none" font-family="Arial" font-size="13px" font-style="normal" font-weight="normal" text-decoration="none" x="400.7001953125" y="315.5">customization</text></g></g><g transform="translate(-62,-6) scale(1,1)"><path fill="none" stroke="#000000" d="M 241 295 L 168 163" stroke-miterlimit="10"/></g><g transform="translate(-62,-6) scale(1,1)"><path fill="none" stroke="#000000" d="M 176.60198365170513 169.8560832299351 L 168 163 L 169.23453802751004 173.93050391604302" stroke-miterlimit="10"/></g><g transform="translate(-62,-6) scale(1,1)"><g><path fill="none" stroke="none"/><text fill="#000000" stroke="none" font-family="Arial" font-size="13px" font-style="normal" font-weight="normal" text-decoration="none" x="210.5" y="226.5">part of</text></g></g></g></svg>