<svg version="1.1" xmlns="http://www.w3.org/2000/svg" xmlns:xlink="http://www.w3.org/1999/xlink" width="580" height="340"><defs/><g><g transform="translate(-78,2) scale(1,1)"><path fill="#ffffff" stroke="none" d="M 88 18 L 637 18 L 637 327 L 88 327"/></g><g transform="translate(-78,2) scale(1,1)"><path fill="#ffffff" stroke="none" d="M 88 18 L 98 8 L 647 8 L 637 18"/></g><g transform="translate(-78,2) scale(1,1)"><path fill="#ffffff" stroke="none" d="M 647 8 L 637 18 L 637 327 L 647 317"/></g><g transform="translate(-78,2) scale(1,1)"><path fill="none" stroke="#000000" d="M 88 18 L 637 18 L 637 327 L 88 327 L 88 18" stroke-miterlimit="10"/></g><g transform="translate(-78,2) scale(1,1)"><path fill="none" stroke="#000000" d="M 88 18 L 98 8 L 647 8 L 637 18 L 88 18" stroke-miterlimit="10"/></g><g transform="translate(-78,2) scale(1,1)"><path fill="none" stroke="#000000" d="M 647 8 L 637 18 L 637 327 L 647 317 L 647 8" stroke-miterlimit="10"/></g><g transform="translate(-78,2) scale(1,1)"><g><path fill="none" stroke="none"/><text fill="#000000" stroke="none" font-family="Arial" font-size="13px" font-style="normal" font-weight="bold" text-decoration="none" x="333.5" y="37.5">: Compiler</text><path fill="none" stroke="#000000" d="M 395.5 37.5 L 330.5 37.5" stroke-miterlimit="10"/></g></g><g transform="translate(-78,2) scale(1,1)"><rect fill="#ffffff" stroke="none" x="258" y="64" width="150" height="44"/></g><g transform="translate(-78,2) scale(1,1)"><path fill="none" stroke="#000000" d="M 258 64 L 408 64 L 408 108 L 258 108 L 258 64 Z Z" stroke-miterlimit="10"/></g><g transform="translate(-78,2) scale(1,1)"><rect fill="#ffffff" stroke="none" x="248" y="71" width="20" height="10"/></g><g transform="translate(-78,2) scale(1,1)"><path fill="none" stroke="#000000" d="M 248 71 L 268 71 L 268 81 L 248 81 L 248 71 Z Z" stroke-miterlimit="10"/></g><g transform="translate(-78,2) scale(1,1)"><rect fill="#ffffff" stroke="none" x="248" y="91" width="20" height="10"/></g><g transform="translate(-78,2) scale(1,1)"><path fill="none" stroke="#000000" d="M 248 91 L 268 91 L 268 101 L 248 101 L 248 91 Z Z" stroke-miterlimit="10"/></g><g transform="translate(-78,2) scale(1,1)"><g><path fill="none" stroke="none"/><text fill="#000000" stroke="none" font-family="Arial" font-size="13px" font-style="normal" font-weight="bold" text-decoration="none" x="312.5" y="83.5">Frontend</text><path fill="none" stroke="#000000" d="M 366 83.5 L 310 83.5" stroke-miterlimit="10"/></g></g><g transform="translate(-78,2) scale(1,1)"><rect fill="#ffffff" stroke="none" x="458" y="168" width="150" height="44"/></g><g transform="translate(-78,2) scale(1,1)"><path fill="none" stroke="#000000" d="M 458 168 L 608 168 L 608 212 L 458 212 L 458 168 Z Z" stroke-miterlimit="10"/></g><g transform="translate(-78,2) scale(1,1)"><rect fill="#ffffff" stroke="none" x="448" y="175" width="20" height="10"/></g><g transform="translate(-78,2) scale(1,1)"><path fill="none" stroke="#000000" d="M 448 175 L 468 175 L 468 185 L 448 185 L 448 175 Z Z" stroke-miterlimit="10"/></g><g transform="translate(-78,2) scale(1,1)"><rect fill="#ffffff" stroke="none" x="448" y="195" width="20" height="10"/></g><g transform="translate(-78,2) scale(1,1)"><path fill="none" stroke="#000000" d="M 448 195 L 468 195 L 468 205 L 448 205 L 448 195 Z Z" stroke-miterlimit="10"/></g><g transform="translate(-78,2) scale(1,1)"><g><path fill="none" stroke="none"/><text fill="#000000" stroke="none" font-family="Arial" font-size="13px" font-style="normal" font-weight="bold" text-decoration="none" x="512.5" y="187.5">Backend</text><path fill="none" stroke="#000000" d="M 564.5 187.5 L 511.5 187.5" stroke-miterlimit="10"/></g></g><g transform="translate(-78,2) scale(1,1)"><path fill="#ffffff" stroke="none" d="M 127.89999999999999 48 L 155.34 48 L 167.10000000000002 59.760000000000005 L 167.10000000000002 97 L 127.89999999999999 97"/></g><g transform="translate(-78,2) scale(1,1)"><path fill="none" stroke="#000000" d="M 127.89999999999999 48 L 155.34 48 L 167.10000000000002 59.760000000000005 L 167.10000000000002 97 L 127.89999999999999 97 L 127.89999999999999 48" stroke-miterlimit="10"/></g><g transform="translate(-78,2) scale(1,1)"><path fill="none" stroke="#000000" d="M 155.34 48 L 155.34 59.760000000000005 L 167.10000000000002 59.760000000000005 L 155.34 48" stroke-miterlimit="10"/></g><g transform="translate(-78,2) scale(1,1)"><g><path fill="none" stroke="none"/><text fill="#000000" stroke="none" font-family="Arial" font-size="13px" font-style="normal" font-weight="bold" text-decoration="none" x="95.5" y="116.5">CML Source Files</text><path fill="none" stroke="#000000" d="M 202.5 116.5 L 92.5 116.5" stroke-miterlimit="10"/></g></g><g transform="translate(-78,2) scale(1,1)"><path fill="#ffffff" stroke="none" d="M 511.62412109375 40 L 539.06412109375 40 L 550.82412109375 51.76000000000001 L 550.82412109375 89 L 511.62412109375 89"/></g><g transform="translate(-78,2) scale(1,1)"><path fill="none" stroke="#000000" d="M 511.62412109375 40 L 539.06412109375 40 L 550.82412109375 51.76000000000001 L 550.82412109375 89 L 511.62412109375 89 L 511.62412109375 40" stroke-miterlimit="10"/></g><g transform="translate(-78,2) scale(1,1)"><path fill="none" stroke="#000000" d="M 539.06412109375 40 L 539.06412109375 51.76000000000001 L 550.82412109375 51.76000000000001 L 539.06412109375 40" stroke-miterlimit="10"/></g><g transform="translate(-78,2) scale(1,1)"><g><path fill="none" stroke="none"/><text fill="#000000" stroke="none" font-family="Arial" font-size="13px" font-style="normal" font-weight="bold" text-decoration="none" x="468.22412109375" y="108.5">Extensible Templates</text><path fill="none" stroke="#000000" d="M 597.72412109375 108.5 L 464.72412109375 108.5" stroke-miterlimit="10"/></g></g><g transform="translate(-78,2) scale(1,1)"><rect fill="#ffffff" stroke="none" x="224" y="232" width="93.34521484375" height="64"/></g><g transform="translate(-78,2) scale(1,1)"><path fill="none" stroke="#000000" d="M 224 232 L 317.34521484375 232 L 317.34521484375 296 L 224 296 L 224 232 Z Z" stroke-miterlimit="10"/></g><g transform="translate(-78,2) scale(1,1)"><rect fill="#ffffff" stroke="none" x="224" y="232" width="93.34521484375" height="64"/></g><g transform="translate(-78,2) scale(1,1)"><path fill="none" stroke="#000000" d="M 224 232 L 317.34521484375 232 L 317.34521484375 296 L 224 296 L 224 232 Z Z" stroke-miterlimit="10"/></g><g transform="translate(-78,2) scale(1,1)"><path fill="none" stroke="#000000" d="M 224 257 L 317.34521484375 257" stroke-miterlimit="10"/></g><g transform="translate(-78,2) scale(1,1)"><g><path fill="none" stroke="none"/><text fill="#000000" stroke="none" font-family="Arial" font-size="13px" font-style="normal" font-weight="bold" text-decoration="none" x="252.172607421875" y="251.5">: Task</text><path fill="none" stroke="#000000" d="M 289.172607421875 251.5 L 252.172607421875 251.5" stroke-miterlimit="10"/></g></g><g transform="translate(-78,2) scale(1,1)"><g><path fill="none" stroke="none"/><text fill="#000000" stroke="none" font-family="Arial" font-size="13px" font-style="normal" font-weight="normal" text-decoration="none" x="229" y="274.5">name</text></g></g><g transform="translate(-78,2) scale(1,1)"><g><path fill="none" stroke="none"/><text fill="#000000" stroke="none" font-family="Arial" font-size="13px" font-style="normal" font-weight="normal" text-decoration="none" x="229" y="289.5">constructor</text></g></g><g transform="translate(-78,2) scale(1,1)"><rect fill="#ffffff" stroke="none" x="280" y="184" width="113.93701171875" height="24"/></g><g transform="translate(-78,2) scale(1,1)"><path fill="none" stroke="#000000" d="M 280 184 L 393.93701171875 184 L 393.93701171875 208 L 280 208 L 280 184 Z Z" stroke-miterlimit="10"/></g><g transform="translate(-78,2) scale(1,1)"><rect fill="#ffffff" stroke="none" x="280" y="184" width="113.93701171875" height="24"/></g><g transform="translate(-78,2) scale(1,1)"><path fill="none" stroke="#000000" d="M 280 184 L 393.93701171875 184 L 393.93701171875 208 L 280 208 L 280 184 Z Z" stroke-miterlimit="10"/></g><g transform="translate(-78,2) scale(1,1)"><g><path fill="none" stroke="none"/><text fill="#000000" stroke="none" font-family="Arial" font-size="13px" font-style="normal" font-weight="bold" text-decoration="none" x="286.968505859375" y="203.5">AST: CML Model</text><path fill="none" stroke="#000000" d="M 388.968505859375 203.5 L 284.968505859375 203.5" stroke-miterlimit="10"/></g></g><g transform="translate(-78,2) scale(1,1)"><path fill="#ffffff" stroke="none" d="M 507.4 240 L 534.84 240 L 546.6 251.76000000000002 L 546.6 289 L 507.4 289"/></g><g transform="translate(-78,2) scale(1,1)"><path fill="none" stroke="#000000" d="M 507.4 240 L 534.84 240 L 546.6 251.76000000000002 L 546.6 289 L 507.4 289 L 507.4 240" stroke-miterlimit="10"/></g><g transform="translate(-78,2) scale(1,1)"><path fill="none" stroke="#000000" d="M 534.84 240 L 534.84 251.76000000000002 L 546.6 251.76000000000002 L 534.84 240" stroke-miterlimit="10"/></g><g transform="translate(-78,2) scale(1,1)"><g><path fill="none" stroke="none"/><text fill="#000000" stroke="none" font-family="Arial" font-size="13px" font-style="normal" font-weight="bold" text-decoration="none" x="492.5" y="308.5">Target Files</text><path fill="none" stroke="#000000" d="M 563.5 308.5 L 490.5 308.5" stroke-miterlimit="10"/></g></g><g transform="translate(-78,2) scale(1,1)"><path fill="none" stroke="#000000" d="M 207 86 L 248 86" stroke-miterlimit="10"/></g><g transform="translate(-78,2) scale(1,1)"><path fill="none" stroke="#000000" d="M 237.83732514237585 90.20951775601598 L 248 86 L 237.83732514237585 81.79048224398402" stroke-miterlimit="10"/></g><g transform="translate(-78,2) scale(1,1)"><g><path fill="none" stroke="none"/><text fill="#000000" stroke="none" font-family="Arial" font-size="13px" font-style="normal" font-weight="normal" text-decoration="none" x="212.5" y="77.5">input</text></g></g><g transform="translate(-78,2) scale(1,1)"><path fill="none" stroke="#000000" d="M 330 108 L 330 184" stroke-miterlimit="10"/></g><g transform="translate(-78,2) scale(1,1)"><path fill="none" stroke="#000000" d="M 325.790482243984 173.83732514237585 L 330 184 L 334.209517756016 173.83732514237585" stroke-miterlimit="10"/></g><g transform="translate(-78,2) scale(1,1)"><g><path fill="none" stroke="none"/><text fill="#000000" stroke="none" font-family="Arial" font-size="13px" font-style="normal" font-weight="normal" text-decoration="none" x="338.66552734375" y="151.5">compilation</text></g></g><g transform="translate(-78,2) scale(1,1)"><path fill="none" stroke="#000000" d="M 394 197 L 448 197" stroke-miterlimit="10"/></g><g transform="translate(-78,2) scale(1,1)"><path fill="none" stroke="#000000" d="M 437.83732514237585 201.209517756016 L 448 197 L 437.83732514237585 192.790482243984" stroke-miterlimit="10"/></g><g transform="translate(-78,2) scale(1,1)"><g><path fill="none" stroke="none"/><text fill="#000000" stroke="none" font-family="Arial" font-size="13px" font-style="normal" font-weight="normal" text-decoration="none" x="406.5" y="188.5">input</text></g></g><g transform="translate(-78,2) scale(1,1)"><path fill="none" stroke="#000000" d="M 527 114 L 527 168" stroke-miterlimit="10"/></g><g transform="translate(-78,2) scale(1,1)"><path fill="none" stroke="#000000" d="M 522.790482243984 157.83732514237585 L 527 168 L 531.209517756016 157.83732514237585" stroke-miterlimit="10"/></g><g transform="translate(-78,2) scale(1,1)"><g><path fill="none" stroke="none"/><text fill="#000000" stroke="none" font-family="Arial" font-size="13px" font-style="normal" font-weight="normal" text-decoration="none" x="538.5" y="146.5">input</text></g></g><g transform="translate(-78,2) scale(1,1)"><path fill="none" stroke="#000000" d="M 528 213 L 527 239" stroke-miterlimit="10"/></g><g transform="translate(-78,2) scale(1,1)"><path fill="none" stroke="#000000" d="M 523.18417566617 228.6830486744702 L 527 239 L 531.5969909811859 229.0066184942785" stroke-miterlimit="10"/></g><g transform="translate(-78,2) scale(1,1)"><g><path fill="none" stroke="none"/><text fill="#000000" stroke="none" font-family="Arial" font-size="13px" font-style="normal" font-weight="normal" text-decoration="none" x="534.243408203125" y="231.5">code generation</text></g></g><g transform="translate(-78,2) scale(1,1)"><path fill="none" stroke="#000000" d="M 318 250 L 448 213" stroke-miterlimit="10"/></g><g transform="translate(-78,2) scale(1,1)"><path fill="none" stroke="#000000" d="M 439.3778420063013 219.8306948059255 L 448 213 L 437.0731829967082 211.7332442316795" stroke-miterlimit="10"/></g><g transform="translate(-78,2) scale(1,1)"><g><path fill="none" stroke="none"/><text fill="#000000" stroke="none" font-family="Arial" font-size="13px" font-style="normal" font-weight="normal" text-decoration="none" x="357.7001953125" y="256.5">customization</text></g></g><g transform="translate(-78,2) scale(1,1)"><path fill="none" stroke="#000000" d="M 247 231 L 173 123" stroke-miterlimit="10"/></g><g transform="translate(-78,2) scale(1,1)"><path fill="none" stroke="#000000" d="M 182.21683081581233 129.00416769525071 L 173 123 L 175.27169587821706 133.76287126360302" stroke-miterlimit="10"/></g><g transform="translate(-78,2) scale(1,1)"><g><path fill="none" stroke="none"/><text fill="#000000" stroke="none" font-family="Arial" font-size="13px" font-style="normal" font-weight="normal" text-decoration="none" x="216.5" y="172.5">part of</text></g></g></g></svg>